<?xml version="1.0" standalone="no"?>
<!DOCTYPE svg PUBLIC "-//W3C//DTD SVG 20010904//EN"
 "http://www.w3.org/TR/2001/REC-SVG-20010904/DTD/svg10.dtd">
<svg version="1.0" xmlns="http://www.w3.org/2000/svg"
 width="1000.000000pt" height="1000.000000pt" viewBox="0 0 1000.000000 1000.000000"
 preserveAspectRatio="xMidYMid meet">
<metadata>
Created by potrace 1.11, written by Peter Selinger 2001-2013
</metadata>
<g transform="translate(0.000000,1000.000000) scale(0.100000,-0.100000)"
fill="#000000" stroke="none">
<path d="M962 9145 c0 -16 2 -22 5 -12 2 9 2 23 0 30 -3 6 -5 -1 -5 -18z"/>
<path d="M1010 9002 c0 -6 6 -31 14 -54 8 -24 26 -83 40 -133 65 -218 166
-485 235 -620 24 -47 26 -43 7 11 -7 22 -11 44 -9 51 2 6 -8 31 -23 55 -15 24
-27 45 -26 48 1 3 -5 13 -13 22 -15 18 -11 44 9 63 17 16 38 12 47 -10 4 -11
8 -15 8 -9 1 5 -17 59 -40 120 -22 60 -49 134 -59 164 -18 54 -19 55 -55 54
-30 -1 -36 2 -32 16 2 9 -2 25 -9 35 -19 25 0 49 27 34 22 -11 24 -6 9 22 -6
10 -20 19 -30 19 -11 0 -20 5 -20 10 0 6 -5 10 -11 10 -5 0 -7 -4 -4 -10 3 -5
2 -10 -3 -10 -5 0 -14 12 -21 27 -14 30 -3 43 37 43 13 0 22 6 22 16 0 12 -8
15 -34 13 -19 -2 -41 3 -50 10 -10 8 -16 9 -16 3z m183 -315 c14 -41 13 -44
-4 -55 -16 -10 -21 -7 -39 30 -15 31 -17 45 -9 55 20 24 37 14 52 -30z m43
-109 c5 -13 9 -26 10 -30 1 -5 2 -9 3 -10 2 -2 4 -13 7 -25 3 -16 -3 -24 -26
-31 -33 -12 -49 0 -30 23 8 9 8 15 0 20 -6 3 -8 11 -5 16 4 5 1 9 -4 9 -6 0
-11 11 -11 25 0 34 45 36 56 3z"/>
<path d="M5470 7776 c0 -2 7 -7 16 -10 8 -3 12 -2 9 4 -6 10 -25 14 -25 6z"/>
<path d="M5381 7721 c-18 -10 -45 -31 -60 -47 -14 -17 -46 -44 -71 -61 -57
-40 -343 -301 -381 -349 -30 -39 -36 -49 -19 -39 6 3 10 1 10 -4 0 -6 -9 -11
-21 -11 -11 0 -18 -4 -15 -9 7 -10 -16 -71 -26 -71 -4 0 -8 -5 -8 -11 0 -7 9
-9 24 -5 21 5 23 3 18 -17 -6 -24 -13 -30 240 210 70 66 153 142 185 169 32
27 99 85 148 128 50 44 92 82 95 84 2 2 -2 7 -10 12 -10 6 -17 4 -23 -5 -10
-19 -27 -19 -27 0 0 8 -7 15 -15 15 -9 0 -12 6 -9 15 7 18 9 18 -35 -4z"/>
<path d="M6515 7487 c-75 -13 -79 -14 -97 -22 -10 -4 -25 -5 -33 -1 -8 3 -15
2 -15 -3 0 -5 -14 -11 -30 -15 -24 -4 -94 -49 -155 -98 -5 -5 -21 -17 -34 -28
-13 -11 -28 -20 -33 -20 -4 0 -8 -7 -8 -15 0 -8 -7 -15 -15 -15 -8 0 -15 -7
-15 -15 0 -8 -9 -15 -20 -15 -11 0 -19 -4 -18 -9 2 -5 0 -9 -5 -10 -17 -2
-135 -116 -208 -202 -128 -148 -160 -190 -156 -202 2 -7 8 -3 16 11 6 12 16
22 22 22 5 0 2 -11 -7 -25 -11 -17 -23 -24 -34 -20 -12 4 -28 -11 -59 -55 -23
-33 -38 -60 -33 -60 6 0 12 7 16 15 3 8 10 15 17 15 9 0 -36 -70 -76 -117 -26
-31 -33 -40 -49 -66 -10 -15 -24 -27 -32 -27 -21 0 -67 -67 -61 -89 3 -12 -1
-22 -9 -25 -8 -3 -14 -10 -14 -16 0 -6 -5 -16 -10 -23 -23 -26 -130 -177 -130
-182 0 -3 -11 -18 -24 -32 -14 -14 -35 -46 -47 -70 -12 -23 -26 -43 -31 -43
-4 0 -8 -4 -8 -9 0 -6 -25 -46 -55 -91 -30 -45 -57 -92 -61 -103 -4 -12 -15
-33 -24 -47 -10 -14 -28 -43 -40 -65 -13 -22 -43 -76 -68 -120 -86 -152 -134
-240 -153 -278 -11 -20 -29 -56 -41 -80 -11 -23 -33 -66 -46 -94 -20 -41 -31
-53 -49 -53 -13 0 -23 -4 -23 -10 0 -5 8 -10 19 -10 10 0 25 -8 32 -17 13 -15
11 -16 -18 -10 -38 8 -43 -6 -13 -37 10 -12 22 -41 26 -65 6 -39 5 -44 -9 -38
-10 4 -17 2 -17 -3 0 -6 10 -10 23 -10 13 0 27 -3 30 -7 9 -9 -22 -43 -40 -43
-15 0 -17 -16 -3 -25 14 -9 12 -82 -2 -92 -16 -10 -49 -5 -67 10 -11 9 -15 9
-18 0 -3 -7 -14 -13 -25 -13 -11 0 -32 -8 -46 -19 -36 -25 -129 -35 -162 -18
-19 10 -25 20 -25 47 0 32 2 35 33 36 36 2 58 14 24 14 -38 0 -49 9 -44 40 5
33 10 36 117 62 44 11 90 22 102 25 23 5 73 49 73 64 0 4 -10 -2 -22 -14 -30
-29 -248 -94 -263 -79 -3 3 -5 17 -5 32 0 22 8 30 53 50 52 24 206 125 219
145 4 5 7 19 6 30 l-1 20 -4 -20 c-4 -19 -135 -122 -176 -138 -11 -4 -35 -15
-54 -24 -30 -14 -36 -14 -44 -2 -5 8 -9 21 -9 31 0 19 80 93 130 118 40 20 91
101 89 141 -1 20 -2 18 -10 -8 -16 -56 -49 -101 -92 -126 -23 -14 -59 -39 -81
-56 -43 -35 -52 -33 -61 9 -5 24 1 39 33 82 44 60 107 166 116 195 4 13 0 25
-10 34 -15 12 -16 11 -10 -8 4 -12 1 -36 -7 -55 -19 -43 -119 -190 -133 -195
-22 -7 -24 30 -5 71 65 135 95 235 77 252 -27 25 -38 27 -31 5 4 -12 2 -21 -4
-21 -6 0 -11 5 -11 12 0 6 -3 9 -6 5 -9 -9 6 -48 17 -42 5 4 9 -8 9 -24 0 -17
-4 -31 -10 -31 -5 0 -10 -8 -10 -17 0 -33 -20 -90 -40 -112 -10 -13 -21 -28
-23 -34 -3 -9 -8 -8 -20 2 -13 10 -17 30 -16 90 0 42 4 94 9 116 7 35 9 37 15
17 5 -14 13 -21 21 -18 9 4 14 -2 14 -16 0 -20 1 -21 13 -4 14 19 11 86 -4 86
-5 0 -9 -5 -9 -10 0 -7 -6 -8 -16 -2 -9 5 -25 7 -34 5 -13 -3 -19 4 -24 28 -3
18 -14 41 -23 51 -13 15 -14 18 -2 18 8 0 19 -4 25 -8 13 -11 64 -33 64 -27 0
23 -174 93 -350 140 -36 10 -69 21 -74 26 -20 18 191 403 298 542 25 32 26 37
10 36 -43 -4 -51 0 -46 26 6 34 -15 25 -45 -18 -129 -186 -241 -379 -289 -498
-26 -62 -31 -69 -51 -64 -15 3 -23 1 -23 -7 0 -10 -3 -9 -9 1 -13 21 -185 9
-243 -17 -24 -10 -81 -49 -126 -86 -45 -36 -86 -66 -90 -66 -4 0 -8 -9 -9 -19
-1 -11 -12 -36 -25 -58 -34 -55 -73 -148 -99 -239 -37 -133 -28 -324 24 -471
25 -73 119 -232 177 -301 77 -92 204 -200 269 -229 30 -13 75 -27 101 -30 59
-7 161 13 154 31 -3 8 15 18 53 29 32 8 67 19 78 23 19 7 19 7 3 -9 -9 -9 -28
-17 -42 -17 -34 0 -41 -15 -16 -40 23 -23 40 -25 89 -8 32 11 45 22 79 63 5 6
7 16 4 23 -2 7 2 10 12 6 25 -9 31 -46 11 -60 -10 -7 -23 -15 -29 -17 -7 -3
-7 -9 3 -20 7 -9 11 -27 8 -39 -7 -28 -1 -39 36 -57 31 -16 36 -45 10 -60 -17
-9 -17 -11 0 -28 17 -16 19 -17 30 -2 7 9 17 14 24 12 6 -2 14 1 18 6 3 6 -1
11 -9 11 -9 0 -16 5 -16 10 0 13 49 5 64 -10 8 -8 7 -10 -4 -5 -11 4 -19 -4
-28 -27 -15 -40 -8 -47 21 -21 48 45 100 37 136 -20 20 -32 20 -37 6 -70 -27
-65 -22 -72 68 -86 30 -5 47 -4 47 2 0 6 8 3 18 -5 18 -17 135 -49 192 -53 19
-2 42 -5 50 -8 74 -25 181 -39 197 -25 9 8 13 7 13 -1 0 -7 5 -9 10 -6 6 3 10
2 10 -3 0 -14 43 -23 54 -12 7 7 3 10 -9 10 -27 0 -7 16 30 24 27 6 28 5 13
-7 -24 -19 -23 -26 4 -19 13 3 19 1 15 -5 -4 -6 9 -10 31 -10 20 0 29 2 20 4
-10 2 -18 8 -18 13 0 12 54 19 61 8 5 -7 22 -3 51 11 52 25 84 28 54 6 -22
-17 -23 -16 23 -38 42 -21 47 -21 30 -1 -11 14 -10 18 6 31 19 15 19 15 -7 9
-41 -9 -34 8 11 29 32 14 40 23 43 51 2 18 -1 35 -7 37 -6 3 -3 16 8 36 10 17
15 31 12 31 -3 0 3 10 15 22 11 12 20 28 20 36 0 8 14 34 30 59 17 24 30 47
30 52 0 4 11 17 25 29 23 20 55 21 55 1 0 -5 4 -9 10 -9 5 0 7 6 4 13 -3 8 2
14 11 14 9 0 14 -6 11 -14 -3 -8 -1 -11 4 -8 6 3 10 1 10 -4 0 -6 -4 -11 -10
-11 -20 0 -10 -19 13 -23 12 -2 0 -6 -28 -7 -32 -2 -40 -4 -22 -7 15 -2 27 -8
27 -13 0 -4 10 -6 23 -3 20 4 21 3 5 -10 -10 -8 -18 -20 -18 -28 0 -10 -3 -10
-8 -3 -4 7 -27 13 -52 14 -73 4 -90 1 -90 -16 0 -11 6 -14 20 -9 13 4 20 2 20
-7 0 -41 60 -102 75 -77 9 14 31 0 32 -21 1 -16 -5 -20 -28 -20 -16 0 -29 -5
-29 -11 0 -7 12 -10 30 -7 17 3 30 0 30 -5 0 -5 14 -7 33 -3 30 6 30 5 -13
-20 -51 -29 -170 -142 -170 -161 0 -30 121 -11 153 24 27 29 62 48 102 56 28
5 30 4 31 -29 0 -24 -3 -31 -11 -24 -13 11 -25 3 -25 -17 0 -19 21 -16 60 10
24 16 70 28 145 41 106 17 203 46 328 99 57 24 116 77 117 106 0 8 3 12 6 8 4
-3 17 17 31 46 13 29 29 60 34 69 5 10 9 28 9 41 0 13 5 28 11 34 22 22 38
115 33 202 -3 63 0 93 10 106 12 17 14 17 34 -3 26 -26 27 -35 6 -68 -15 -23
-15 -26 0 -43 20 -22 21 -65 1 -81 -11 -9 -13 -23 -8 -52 4 -29 2 -42 -8 -49
-8 -4 -14 -24 -15 -43 -1 -35 -1 -35 22 -18 27 20 30 32 9 32 -18 0 -19 9 -1
33 17 22 30 22 23 -2 -3 -14 0 -17 14 -14 13 4 19 0 19 -11 0 -9 5 -16 11 -16
6 0 9 -6 6 -12 -6 -20 50 -40 75 -27 11 6 17 13 14 16 -3 3 -13 0 -21 -7 -13
-11 -20 -9 -40 10 -14 13 -21 28 -18 38 4 10 2 13 -5 8 -7 -4 -12 -1 -12 9 0
8 -7 18 -15 21 -8 4 -15 13 -15 21 0 8 -5 11 -10 8 -19 -11 -22 25 -6 58 15
30 16 31 22 10 4 -13 11 -20 20 -16 8 3 14 -1 14 -11 0 -9 7 -16 15 -16 8 0
15 -9 15 -21 0 -12 4 -18 11 -13 6 3 15 1 19 -6 4 -7 13 -9 19 -6 16 11 13 26
-4 20 -9 -4 -15 0 -15 9 0 8 -6 17 -12 19 -10 4 -10 11 1 34 11 21 15 25 18
13 4 -17 43 -15 43 2 0 20 21 60 29 54 12 -7 -3 -60 -23 -81 -20 -20 -21 -30
-1 -14 13 11 15 8 16 -21 0 -19 3 -28 6 -21 8 20 22 14 16 -8 -5 -20 -33 -29
-33 -11 0 5 -9 7 -20 4 -25 -7 -25 -11 2 -33 20 -16 21 -20 8 -35 -8 -10 23 9
70 43 66 47 91 72 109 107 77 154 35 379 -92 489 l-51 46 -21 -20 c-12 -11
-25 -17 -29 -13 -4 5 -6 1 -5 -7 5 -20 -38 -80 -57 -80 -21 0 -38 -49 -23 -66
16 -20 -5 -18 -25 2 -9 8 -16 28 -16 44 0 16 -5 32 -10 35 -6 4 -7 11 -4 17 4
6 1 14 -6 18 -9 6 -4 16 19 36 17 16 41 49 54 74 22 43 26 45 71 48 26 1 56 6
65 12 43 23 111 161 111 226 0 17 13 50 31 77 37 56 49 65 49 38 0 -12 4 -21
9 -21 5 0 11 -10 14 -22 6 -22 10 -23 89 -20 46 2 163 -1 262 -6 98 -5 190 -7
204 -4 l25 5 -24 13 c-20 11 -21 13 -6 14 11 0 32 10 49 21 l29 21 24 -22 c21
-19 31 -22 69 -17 26 4 48 2 51 -3 4 -6 11 -8 16 -5 5 4 9 2 9 -3 0 -5 -9 -12
-21 -15 -12 -3 -18 -10 -14 -16 10 -17 473 -10 505 8 40 22 69 52 64 66 -3 7
2 15 11 19 9 3 16 16 15 28 -4 45 0 57 15 52 16 -7 25 1 73 64 19 23 41 42 51
42 9 0 27 7 39 16 12 8 28 14 34 12 31 -11 249 292 333 461 49 97 61 137 51
176 -7 27 -40 35 -49 11 -3 -8 -22 -20 -41 -27 -20 -7 -36 -17 -36 -22 0 -4
-4 -6 -9 -3 -4 3 -14 -7 -20 -21 -9 -19 -15 -23 -20 -14 -6 9 -13 9 -34 0 -26
-12 -27 -15 -28 -98 0 -142 -27 -185 -86 -141 -16 11 -41 23 -56 25 -25 5 -27
3 -29 -27 -2 -55 -5 -82 -13 -115 -6 -25 -4 -33 6 -33 9 0 10 -3 4 -8 -5 -4
-10 -20 -10 -37 0 -26 -4 -30 -31 -33 -44 -4 -82 -48 -93 -106 -10 -57 -58
-112 -70 -81 -2 6 -9 18 -17 29 -11 16 -10 21 2 33 8 8 11 19 8 25 -5 7 -11 5
-19 -5 -11 -15 -17 -14 -66 12 -30 16 -65 32 -78 36 -26 8 -25 12 -4 -65 6
-23 5 -24 -11 -10 -10 8 -26 19 -36 25 -10 5 -49 29 -87 53 -38 23 -72 42 -76
42 -4 0 5 -22 21 -49 21 -40 24 -52 15 -62 -10 -10 -18 -7 -41 14 -15 15 -33
27 -39 27 -6 0 -14 -20 -17 -45 -4 -25 -12 -45 -18 -45 -13 0 -1 -52 15 -62 9
-5 9 -10 0 -19 -10 -10 -16 -9 -31 4 -25 23 -44 21 -77 -5 l-28 -22 -19 27
c-11 15 -28 27 -37 27 -25 0 -71 48 -71 74 0 11 -7 34 -15 50 -8 15 -15 34
-15 42 0 7 -16 28 -36 46 -77 71 -94 91 -94 109 0 30 -29 68 -73 96 -55 35
-56 23 -1 -18 49 -36 66 -65 58 -96 -3 -11 2 -37 10 -58 16 -38 21 -75 10 -75
-4 0 -45 34 -91 76 -46 42 -86 74 -89 71 -3 -2 2 -22 10 -42 9 -21 16 -42 16
-47 0 -13 -56 19 -112 64 -45 37 -87 58 -111 58 -7 -1 -1 -7 13 -14 26 -15 63
-74 54 -88 -3 -4 -11 -8 -18 -8 -25 0 -111 43 -169 84 -77 54 -126 56 -185 9
-23 -18 -48 -33 -56 -33 -9 0 -18 -11 -22 -25 -3 -14 -12 -25 -19 -25 -8 0
-16 -14 -20 -30 -4 -17 -10 -28 -14 -25 -5 2 -16 -4 -26 -15 -21 -24 -31 -19
-38 18 -3 15 -19 45 -36 66 -37 46 -40 40 -7 -12 13 -20 27 -61 31 -90 7 -51
25 -67 31 -28 1 10 4 19 6 19 2 1 12 8 23 15 11 7 28 15 38 18 9 4 17 13 17
21 0 8 7 22 16 31 15 15 18 14 30 -3 19 -26 17 -40 -3 -24 -15 12 -16 12 -10
-4 4 -10 7 -21 7 -23 0 -2 6 -4 13 -4 7 0 17 -10 22 -22 6 -12 22 -30 37 -41
31 -23 54 -13 61 26 3 21 4 21 12 3 6 -13 5 -21 -3 -24 -19 -6 -14 -32 6 -32
10 0 23 -5 30 -12 9 -9 12 -8 13 8 0 18 1 18 8 -1 11 -27 3 -43 -35 -77 -17
-16 -39 -47 -49 -71 -9 -23 -31 -56 -49 -72 -23 -22 -40 -54 -61 -118 -25 -79
-30 -87 -53 -87 -26 0 -82 -44 -82 -65 0 -9 -45 -85 -67 -114 -2 -3 -9 1 -15
7 -9 9 -7 13 5 18 9 3 17 14 16 23 0 11 -2 12 -6 3 -4 -10 -8 -10 -20 -1 -9 8
-17 9 -21 3 -9 -12 -45 -12 -54 1 -4 5 -22 15 -40 21 -25 9 -32 16 -31 33 2
13 -1 20 -7 16 -6 -3 -10 -12 -10 -20 0 -8 -4 -16 -8 -19 -16 -10 -4 67 12 79
20 15 21 35 1 35 -8 0 -15 -8 -15 -18 0 -10 -9 -24 -20 -32 -20 -14 -29 -47
-10 -35 6 3 10 -1 10 -9 0 -19 -12 -20 -28 -4 -10 10 -15 10 -22 -2 -8 -13
-10 -12 -10 3 0 9 -6 17 -14 17 -26 0 -28 -20 -4 -40 27 -23 12 -27 -18 -5
-12 8 -25 11 -30 7 -5 -4 -1 2 9 14 22 26 22 44 0 44 -14 0 -15 -2 -4 -9 9 -6
10 -10 2 -16 -7 -4 -18 -2 -25 4 -10 8 -23 -1 -57 -41 -24 -28 -50 -57 -57
-64 -10 -10 -47 -14 -130 -15 -64 -1 -169 -4 -232 -8 l-115 -6 50 -13 c59 -16
201 -85 242 -118 26 -21 27 -24 12 -39 -16 -16 -19 -15 -55 19 -57 53 -147
103 -227 127 -58 17 -86 20 -144 15 -72 -7 -98 3 -74 27 17 17 13 31 -4 17 -8
-7 -15 -9 -15 -4 -1 5 -6 0 -13 -11 -12 -20 -37 -32 -37 -17 0 14 60 63 70 57
6 -4 10 -3 9 2 -3 20 2 27 11 13 7 -10 10 -11 10 -2 0 7 -7 15 -15 17 -53 17
-52 15 -32 27 14 7 23 6 36 -6 16 -14 21 -13 60 24 23 22 48 40 54 40 7 0 4 5
-5 11 -10 5 -18 17 -18 24 0 20 26 19 34 -1 3 -8 11 -12 17 -9 7 5 5 13 -7 26
-16 17 -16 19 0 25 11 4 22 0 30 -11 10 -15 15 -15 21 -5 5 9 4 15 -3 18 -14
4 -16 32 -2 32 5 0 13 -8 19 -17 7 -14 13 -15 21 -7 8 8 9 14 1 18 -13 9 -15
36 -2 36 5 0 16 -7 25 -15 10 -11 17 -12 22 -4 3 6 1 15 -7 19 -10 7 -10 11 1
24 12 15 15 15 30 1 15 -14 18 -14 30 0 11 13 11 16 0 13 -7 -2 -15 3 -17 10
-6 15 19 16 34 1 8 -8 13 -7 18 1 4 7 2 16 -6 20 -10 7 -10 11 1 25 13 16 15
16 26 0 7 -9 18 -14 24 -10 8 5 6 13 -6 26 -14 15 -14 19 -3 19 8 0 20 -5 27
-12 6 -6 15 -8 19 -3 5 4 2 10 -4 12 -24 9 -13 20 16 15 22 -3 37 4 68 31 l38
35 246 -5 246 -6 23 33 24 33 -22 -5 c-24 -7 -27 -1 -12 22 5 9 5 19 -2 27 -7
9 -7 13 1 13 6 0 11 -4 11 -10 0 -5 5 -10 10 -10 6 0 10 7 10 15 0 9 6 15 13
14 6 -1 23 2 35 7 21 9 22 11 8 23 -12 10 -13 17 -6 26 6 7 7 20 4 29 -5 14
-9 14 -22 4 -10 -8 -13 -8 -9 -2 4 7 -13 32 -39 58 -25 25 -42 51 -39 56 3 6
0 10 -8 10 -8 0 -20 6 -26 14 -10 11 -8 16 8 21 12 3 25 3 31 0 5 -3 10 1 10
9 0 9 7 16 16 16 12 0 14 7 9 33 -6 30 -5 31 9 13 9 -11 19 -16 23 -13 3 4 -3
17 -15 30 -40 42 -21 53 21 12 14 -14 28 -22 31 -17 3 5 -6 18 -19 28 -14 10
-25 22 -25 26 0 14 37 8 50 -7 7 -8 17 -15 23 -15 6 0 0 11 -13 25 -13 14 -19
25 -13 25 6 0 16 -7 23 -15 18 -22 28 -19 60 17 16 17 33 29 36 25 4 -4 12 3
19 16 6 12 19 21 29 20 11 0 15 4 12 13 -4 10 2 14 19 14 18 0 25 5 25 20 0
19 10 24 37 21 8 -1 10 5 6 15 -5 13 -2 15 16 9 18 -5 22 -3 19 12 -2 11 3 18
12 18 8 0 18 8 22 18 4 9 17 17 28 17 11 0 19 3 19 8 -4 25 3 34 21 29 17 -4
20 -2 14 15 -5 17 -3 19 16 13 15 -5 21 -3 19 7 -4 30 2 40 20 35 14 -3 17 0
14 14 -4 13 0 19 11 19 9 0 16 -5 16 -11 0 -5 5 -7 11 -3 8 4 7 9 -2 15 -11 7
-8 14 14 36 25 25 29 26 50 14 20 -13 21 -13 9 2 -17 20 -6 40 18 34 13 -3 16
0 12 16 -4 18 -2 19 24 13 19 -4 24 -3 15 3 -8 5 -11 16 -8 25 7 18 32 21 42
6 3 -5 11 -10 17 -10 6 0 3 9 -6 19 -21 23 -8 34 31 26 27 -6 27 -6 8 9 -18
15 -18 17 -2 33 13 13 20 14 29 5 17 -17 33 -15 18 3 -18 21 6 51 27 34 7 -7
16 -9 20 -5 3 3 1 6 -5 6 -17 0 -15 25 3 40 12 10 16 9 21 -4 3 -9 12 -16 20
-16 19 0 18 10 -3 26 -17 12 -17 14 -1 30 14 14 21 16 30 6 19 -19 33 -14 15
6 -13 14 -14 21 -5 30 16 16 37 15 44 -3 4 -8 10 -12 16 -9 5 3 1 12 -9 19
-17 13 -17 15 0 32 14 15 21 16 37 5 11 -7 20 -8 20 -3 0 5 -7 11 -15 15 -21
8 -19 23 7 37 18 10 24 8 35 -7 7 -9 16 -15 20 -11 3 4 -2 15 -11 26 -23 26
-2 39 25 15 23 -20 26 -8 4 16 -17 19 -10 50 11 50 7 0 19 -9 27 -21 8 -11 17
-16 21 -11 6 10 -40 57 -63 64 -11 3 -11 6 1 16 12 9 21 6 49 -18 34 -29 49
-36 49 -22 0 4 -16 17 -35 30 -19 12 -35 29 -35 37 0 28 22 27 60 -3 21 -17
40 -28 44 -25 3 3 -12 19 -34 35 -22 17 -40 34 -40 39 0 20 31 7 65 -26 30
-31 35 -33 35 -15 0 11 7 20 15 20 29 0 15 36 -20 53 -35 17 -35 17 -19 42 9
15 23 24 29 21 8 -3 11 2 8 15 -6 22 -1 23 30 8 21 -10 22 -10 2 6 -23 18 -13
42 23 61 12 6 19 14 16 17 -4 4 1 9 10 13 9 3 14 10 11 14 -2 4 15 28 40 54
24 26 43 48 42 50 -6 9 51 76 65 76 23 0 33 -19 14 -26 -8 -3 -12 -12 -9 -20
5 -14 -6 -18 -37 -15 -13 2 -13 1 0 -9 11 -9 12 -13 3 -17 -7 -2 -13 -11 -13
-19 0 -8 -10 -14 -22 -15 -13 0 -17 -3 -10 -6 16 -6 -3 -33 -21 -29 -7 1 -9 1
-4 -1 13 -8 8 -33 -7 -33 -9 0 -12 -7 -9 -20 3 -11 0 -20 -6 -20 -6 0 -11 -7
-11 -16 0 -12 -7 -15 -27 -11 -26 5 -27 4 -8 -10 19 -13 19 -15 3 -27 -10 -7
-18 -18 -18 -25 0 -6 -4 -11 -9 -11 -5 0 -11 -10 -14 -22 -6 -20 -7 -20 -32
-4 -36 24 -41 15 -7 -11 30 -22 44 -20 55 10 5 14 13 17 29 11 21 -6 22 -5 8
11 -13 15 -12 19 3 30 9 7 17 17 17 24 0 6 5 11 10 11 6 0 10 6 10 13 0 7 16
31 36 53 19 21 43 51 52 67 9 15 20 27 25 27 4 0 6 4 3 8 -3 5 2 18 12 28 45
50 52 115 16 144 -21 18 -37 7 -63 -44 -19 -37 -29 -46 -50 -46 -45 0 -55 14
-26 36 14 10 25 25 25 32 0 9 8 11 23 8 12 -3 16 -3 10 0 -21 9 -15 24 10 25
12 0 16 3 9 6 -10 4 -10 8 -1 19 9 11 8 15 -6 20 -20 8 -65 -14 -65 -33 0 -7
-4 -13 -10 -13 -5 0 -10 -6 -10 -14 0 -8 -11 -23 -25 -34 -14 -11 -25 -25 -25
-31 0 -6 -7 -11 -15 -11 -8 0 -15 -4 -15 -10 0 -5 -9 -19 -21 -31 -18 -18 -26
-20 -67 -11 l-47 10 48 1 c27 0 47 6 47 12 0 7 -10 9 -24 5 -14 -3 -27 -2 -30
3 -4 5 8 13 26 17 32 7 33 8 8 15 l-25 7 25 1 c19 1 22 3 11 10 -12 8 -9 11
13 17 16 4 23 10 17 13 -18 11 26 51 57 52 27 0 27 0 4 11 -16 8 -29 8 -50 -2
-15 -7 -36 -14 -47 -15 -93 -11 -304 -137 -428 -254 -81 -77 -238 -253 -387
-435 -364 -445 -611 -705 -946 -998 -21 -19 -23 -18 -97 16 -86 41 -113 45
-102 19 22 -50 13 -110 -10 -73 -4 6 -15 8 -24 5 -10 -3 -43 8 -74 25 -64 34
-82 37 -73 14 5 -14 4 -15 -9 -4 -8 7 -12 16 -9 21 3 5 -1 9 -9 9 -8 0 -20 7
-27 15 -8 10 -31 15 -66 15 -51 0 -56 -3 -100 -47 -65 -67 -97 -110 -89 -123
3 -5 2 -10 -2 -10 -5 0 -9 -9 -10 -20 -2 -29 35 -26 47 4 10 26 52 46 58 28 2
-6 10 -8 18 -5 7 3 12 9 9 14 -3 4 7 4 22 -2 32 -11 100 -108 84 -119 -15 -9
-1 -76 20 -99 24 -26 24 -63 0 -78 -17 -10 -23 -8 -44 20 -41 53 -97 110 -102
105 -3 -3 19 -35 50 -72 30 -37 55 -74 55 -81 0 -7 -22 -32 -50 -55 l-50 -41
-73 50 c-40 28 -87 65 -105 82 -18 18 -36 29 -40 24 -9 -9 67 -77 134 -120 63
-40 73 -54 49 -68 -10 -5 -39 -29 -64 -53 -48 -46 -60 -50 -89 -35 -9 6 -38
20 -64 32 -26 12 -57 32 -69 45 l-21 22 27 41 c14 23 33 45 41 48 12 4 14 15
9 45 -5 25 -3 44 5 54 11 12 10 13 -6 7 -17 -6 -18 -5 -4 12 13 16 13 18 0 13
-9 -3 -15 -17 -15 -34 0 -21 -4 -28 -16 -26 -23 3 -69 -44 -144 -153 -45 -64
-81 -105 -93 -105 -2 0 3 11 12 25 9 14 14 30 11 36 -4 5 -2 8 4 7 8 -3 111
135 111 148 0 6 95 133 115 155 8 9 15 20 15 26 0 6 7 13 15 17 8 3 15 10 15
15 0 5 13 24 29 41 16 18 35 44 42 58 8 14 24 37 37 51 13 14 21 33 19 43 -3
10 -1 16 4 12 18 -11 31 7 17 24 -11 14 -10 15 5 9 14 -5 20 -2 24 13 3 11 9
20 14 20 5 0 9 4 9 10 0 5 18 28 40 51 22 23 37 46 34 51 -3 4 0 7 6 6 7 -2
17 5 23 16 32 51 331 352 390 391 23 16 196 162 258 219 31 28 89 80 130 116
211 186 410 378 444 428 7 9 31 52 54 94 48 90 53 145 21 230 -31 83 -107 122
-205 105z m1470 -167 c3 -5 -1 -10 -9 -10 -9 0 -16 5 -16 10 0 6 4 10 9 10 6
0 13 -4 16 -10z m-96 -56 c2 -2 -6 -12 -17 -23 -12 -10 -22 -21 -22 -25 0 -4
-12 -18 -27 -32 -25 -23 -27 -23 -45 -7 -19 17 -19 18 -1 24 10 4 12 8 6 8 -7
1 -13 6 -13 12 0 7 12 8 33 5 30 -6 31 -6 7 5 -20 10 -22 13 -8 16 11 3 15 10
11 20 -5 13 0 15 33 9 21 -4 41 -10 43 -12z m-234 -44 c-11 -5 -29 -8 -40 -8
-16 0 -15 2 5 8 34 11 60 11 35 0z m-969 -46 c-9 -9 -20 -14 -23 -10 -4 3 2
13 13 20 25 18 31 12 10 -10z m-686 -8 c0 -3 -4 -8 -10 -11 -5 -3 -10 -1 -10
4 0 6 5 11 10 11 6 0 10 -2 10 -4z m655 -26 c3 -5 1 -10 -4 -10 -6 0 -11 5
-11 10 0 6 2 10 4 10 3 0 8 -4 11 -10z m-41 -16 c11 -30 6 -37 -14 -19 -11 10
-20 22 -20 27 0 15 28 9 34 -8z m980 -10 c4 -10 -9 -31 -38 -60 -38 -38 -50
-44 -86 -44 -25 0 -39 4 -35 10 3 6 21 10 40 10 19 0 37 5 41 11 4 8 -3 9 -26
4 -21 -5 -30 -4 -26 3 3 6 24 13 46 17 22 4 43 12 46 17 5 7 -2 9 -19 6 -15
-3 -24 -1 -21 3 3 5 11 9 19 9 8 0 16 4 19 9 4 5 -4 7 -16 3 -14 -3 -19 -2
-14 6 11 18 63 15 70 -4z m-1024 -4 c0 -5 -7 -10 -16 -10 -8 0 -12 5 -9 10 3
6 10 10 16 10 5 0 9 -4 9 -10z m-35 -30 c3 -5 -1 -10 -9 -10 -9 0 -16 5 -16
10 0 6 4 10 9 10 6 0 13 -4 16 -10z m1172 -16 c2 -6 -11 -15 -29 -19 -22 -5
-27 -9 -15 -12 20 -5 21 -12 2 -37 -12 -15 -22 -17 -59 -12 -26 4 -46 12 -46
18 0 6 12 8 28 5 22 -4 24 -3 10 6 -15 10 -14 14 10 39 21 22 35 27 61 25 19
-1 36 -7 38 -13z m-1117 -4 c0 -5 -4 -10 -10 -10 -5 0 -10 5 -10 10 0 6 5 10
10 10 6 0 10 -4 10 -10z m-560 -40 c0 -5 -4 -10 -10 -10 -5 0 -10 5 -10 10 0
6 5 10 10 10 6 0 10 -4 10 -10z m520 0 c0 -5 -4 -10 -10 -10 -5 0 -10 5 -10
10 0 6 5 10 10 10 6 0 10 -4 10 -10z m-80 -21 c0 -5 -4 -9 -10 -9 -5 0 -10 7
-10 16 0 8 5 12 10 9 6 -3 10 -10 10 -16z m40 -15 c0 -8 -5 -12 -10 -9 -6 4
-8 11 -5 16 9 14 15 11 15 -7z m990 5 c0 -5 -7 -9 -15 -9 -8 0 -19 -9 -25 -20
-6 -12 -21 -20 -35 -20 -14 0 -25 -4 -25 -10 0 -5 8 -10 18 -10 12 0 8 -8 -18
-29 -19 -16 -39 -27 -44 -24 -5 4 -7 -1 -3 -9 7 -19 -35 -58 -61 -58 -14 0
-15 2 -2 10 13 9 7 14 -12 11 -5 0 -8 3 -8 9 0 5 12 12 28 16 43 9 49 12 25
13 -13 1 -23 5 -23 10 0 5 14 9 30 9 17 -1 33 2 37 5 3 4 -3 7 -15 7 -33 0
-26 16 11 28 19 6 24 10 13 11 -29 2 1 31 33 32 22 0 23 1 6 8 -19 8 -19 8 0
18 23 13 85 15 85 2z m-1063 -25 c-9 -9 -28 6 -21 18 4 6 10 6 17 -1 6 -6 8
-13 4 -17z m1172 10 l31 -6 -38 -39 c-35 -35 -42 -37 -80 -32 -54 7 -55 26 -2
21 22 -2 40 0 40 4 0 5 -11 8 -25 8 -37 0 -30 20 8 21 29 0 30 1 10 9 -13 5
-23 12 -23 15 0 7 41 6 79 -1z m-1219 -35 c0 -5 -4 -9 -10 -9 -5 0 -10 7 -10
16 0 8 5 12 10 9 6 -3 10 -10 10 -16z m80 7 c0 -3 -4 -8 -10 -11 -5 -3 -10 -1
-10 4 0 6 5 11 10 11 6 0 10 -2 10 -4z m1220 -36 c19 -19 26 -40 14 -40 -16 0
-74 43 -68 51 9 15 33 10 54 -11z m-1333 -16 c-9 -9 -28 6 -21 18 4 6 10 6 17
-1 6 -6 8 -13 4 -17z m63 6 c0 -5 -4 -10 -10 -10 -5 0 -10 5 -10 10 0 6 5 10
10 10 6 0 10 -4 10 -10z m1088 -10 c9 0 23 -4 31 -9 12 -8 12 -12 -2 -26 -12
-12 -26 -14 -52 -9 -54 10 -57 28 -4 21 42 -5 42 -5 12 5 -18 6 -33 15 -33 21
0 5 7 6 16 3 9 -3 23 -6 32 -6z m-1188 -15 c0 -8 -4 -15 -10 -15 -5 0 -10 7
-10 15 0 8 5 15 10 15 6 0 10 -7 10 -15z m60 -11 c0 -8 -4 -12 -10 -9 -5 3
-10 10 -10 16 0 5 5 9 10 9 6 0 10 -7 10 -16z m-580 -8 c0 -3 -4 -8 -10 -11
-5 -3 -10 -1 -10 4 0 6 5 11 10 11 6 0 10 -2 10 -4z m490 -11 c0 -8 -4 -15
-10 -15 -5 0 -10 7 -10 15 0 8 5 15 10 15 6 0 10 -7 10 -15z m65 -5 c3 -5 1
-10 -4 -10 -6 0 -11 5 -11 10 0 6 2 10 4 10 3 0 8 -4 11 -10z m1111 -1 c49
-13 58 -29 17 -30 -22 0 -24 -2 -10 -8 16 -6 11 -16 -42 -71 -33 -36 -61 -60
-61 -54 0 5 5 15 11 21 9 9 8 16 -5 28 -23 24 -20 28 14 22 17 -4 30 -2 30 3
0 6 -16 10 -35 10 -43 0 -44 9 -5 40 16 14 29 31 30 38 0 15 0 15 56 1z
m-1151 -28 c3 -5 1 -12 -5 -16 -5 -3 -10 1 -10 9 0 18 6 21 15 7z m-65 -11 c0
-5 -4 -10 -10 -10 -5 0 -10 5 -10 10 0 6 5 10 10 10 6 0 10 -4 10 -10z m-580
-19 c0 -5 -7 -11 -15 -15 -15 -5 -20 5 -8 17 9 10 23 9 23 -2z m620 -1 c0 -5
-2 -10 -4 -10 -3 0 -8 5 -11 10 -3 6 -1 10 4 10 6 0 11 -4 11 -10z m1250 1 c0
-13 -29 -35 -37 -28 -7 8 15 37 28 37 5 0 9 -4 9 -9z m-1807 -18 c-7 -2 -19
-2 -25 0 -7 3 -2 5 12 5 14 0 19 -2 13 -5z m477 -7 c0 -8 6 -16 13 -19 6 -2 9
-8 5 -12 -8 -9 -38 18 -38 34 0 6 5 11 10 11 6 0 10 -6 10 -14z m-570 -16 c0
-5 -7 -10 -16 -10 -8 0 -12 5 -9 10 3 6 10 10 16 10 5 0 9 -4 9 -10z m1831
-32 c-17 -17 -33 -29 -36 -26 -7 6 44 58 58 58 5 0 -5 -14 -22 -32z m-291 12
c0 -5 -4 -10 -10 -10 -5 0 -10 5 -10 10 0 6 5 10 10 10 6 0 10 -4 10 -10z
m-1006 -16 c9 -22 -3 -32 -14 -14 -12 19 -12 30 -1 30 5 0 12 -7 15 -16z
m1019 -11 c-7 -2 -19 -2 -25 0 -7 3 -2 5 12 5 14 0 19 -2 13 -5z m-46 -9 c-3
-3 -12 -4 -19 -1 -8 3 -5 6 6 6 11 1 17 -2 13 -5z m-1017 -14 c0 -5 -4 -10
-10 -10 -5 0 -10 5 -10 10 0 6 5 10 10 10 6 0 10 -4 10 -10z m1028 -7 c-9 -2
-15 -10 -12 -17 7 -19 -22 -39 -46 -31 -28 9 -25 25 4 25 13 0 26 7 30 15 3 8
13 14 23 14 16 -1 16 -2 1 -6z m248 -20 c-10 -10 -19 5 -10 18 6 11 8 11 12 0
2 -7 1 -15 -2 -18z m-46 7 c0 -5 -16 -10 -36 -10 -21 0 -33 4 -29 10 3 6 19
10 36 10 16 0 29 -4 29 -10z m-84 -11 c59 -15 58 -34 -2 -25 -52 7 -67 13 -59
27 8 11 7 11 61 -2z m-1649 -5 c-3 -3 -12 -4 -19 -1 -8 3 -5 6 6 6 11 1 17 -2
13 -5z m468 -4 c-3 -5 -2 -10 4 -10 5 0 11 6 14 13 2 6 8 9 12 4 5 -4 0 -13
-10 -21 -16 -11 -21 -11 -32 0 -17 17 -16 24 3 24 8 0 12 -4 9 -10z m-495 -30
c0 -5 -7 -10 -15 -10 -8 0 -15 5 -15 10 0 6 7 10 15 10 8 0 15 -4 15 -10z
m450 -5 c0 -8 -4 -15 -10 -15 -5 0 -10 7 -10 15 0 8 5 15 10 15 6 0 10 -7 10
-15z m1238 1 c9 -10 -32 -57 -46 -51 -12 4 -12 3 -3 -9 16 -19 -1 -30 -32 -21
-18 6 -20 5 -9 -6 21 -22 13 -32 -20 -25 -32 6 -33 6 -10 -9 50 -36 12 -38
-55 -3 -26 13 -30 28 -8 28 9 0 12 6 8 17 -5 12 -2 15 8 11 59 -22 86 -19 32
4 l-28 12 40 6 c22 4 30 8 18 9 -41 2 -24 21 20 22 29 2 34 3 15 6 -16 2 -28
9 -28 15 0 10 87 4 98 -6z m-190 -16 c-14 -21 -20 -23 -56 -14 -33 9 -8 34 34
34 32 0 33 -1 22 -20z m-1087 -23 c-13 -13 -26 -3 -16 12 3 6 11 8 17 5 6 -4
6 -10 -1 -17z m-434 7 c-3 -3 -12 -4 -19 -1 -8 3 -5 6 6 6 11 1 17 -2 13 -5z
m473 -14 c0 -5 -4 -10 -10 -10 -5 0 -10 5 -10 10 0 6 5 10 10 10 6 0 10 -4 10
-10z m-80 -10 c0 -5 -4 -10 -10 -10 -5 0 -10 5 -10 10 0 6 5 10 10 10 6 0 10
-4 10 -10z m1090 -5 c-15 -19 -21 -19 -46 0 -18 13 -16 14 20 15 33 0 37 -2
26 -15z m-1080 -31 c0 -8 -4 -12 -10 -9 -5 3 -10 10 -10 16 0 5 5 9 10 9 6 0
10 -7 10 -16z m1049 1 c2 -3 0 -10 -6 -16 -13 -13 -75 10 -66 24 5 9 61 2 72
-8z m-1093 -42 c-10 -10 -19 5 -10 18 6 11 8 11 12 0 2 -7 1 -15 -2 -18z
m1011 11 c-3 -3 -12 -4 -19 -1 -8 3 -5 6 6 6 11 1 17 -2 13 -5z m170 -16 c15
-7 34 -18 41 -25 11 -11 8 -13 -18 -13 -34 0 -83 27 -74 41 7 12 18 11 51 -3z
m-132 -18 c-3 -5 -13 -10 -21 -10 -8 0 -14 -4 -14 -10 0 -5 -8 -10 -17 -10
-15 0 -14 2 3 19 19 20 60 29 49 11z m-1095 -10 c0 -5 -4 -10 -10 -10 -5 0
-10 5 -10 10 0 6 5 10 10 10 6 0 10 -4 10 -10z m1211 -18 c21 -18 16 -32 -13
-32 -17 0 -18 -3 -9 -14 21 -25 -16 -37 -56 -18 -48 23 -44 48 7 43 13 -2 13
0 1 8 -12 8 -13 12 -1 25 14 18 41 14 71 -12z m-211 8 c0 -5 -7 -10 -16 -10
-8 0 -12 5 -9 10 3 6 10 10 16 10 5 0 9 -4 9 -10z m-35 -30 c3 -5 -1 -10 -10
-10 -9 0 -13 5 -10 10 3 6 8 10 10 10 2 0 7 -4 10 -10z m70 0 c-3 -5 -13 -10
-21 -10 -8 0 -12 5 -9 10 3 6 13 10 21 10 8 0 12 -4 9 -10z m-1500 -20 c3 -5
-1 -10 -10 -10 -9 0 -13 5 -10 10 3 6 8 10 10 10 2 0 7 -4 10 -10z m1472 -8
c8 -5 8 -11 -2 -25 -11 -15 -14 -15 -25 -3 -19 24 1 45 27 28z m-67 -12 c0 -5
-11 -10 -25 -10 -14 0 -25 5 -25 10 0 6 11 10 25 10 14 0 25 -4 25 -10z m180
-5 c26 -13 41 -35 25 -35 -20 0 -75 31 -70 40 8 13 11 13 45 -5z m-1235 -15
c3 -5 1 -10 -4 -10 -6 0 -11 5 -11 10 0 6 2 10 4 10 3 0 8 -4 11 -10z m1210
-14 c19 -8 35 -20 35 -25 0 -14 -15 -14 -43 0 -20 9 -20 9 -4 -4 20 -17 22
-37 3 -37 -22 0 -60 35 -52 49 4 6 12 9 17 6 5 -3 6 1 3 9 -8 20 -2 20 41 2z
m-217 -22 c-19 -19 -32 -25 -45 -19 -16 6 -15 9 10 17 15 5 27 14 27 19 0 5 8
9 17 9 14 0 13 -5 -9 -26z m-1028 0 c0 -8 -5 -12 -10 -9 -6 4 -8 11 -5 16 9
14 15 11 15 -7z m1105 5 c10 -15 -1 -22 -24 -14 -12 3 -19 11 -16 16 8 12 32
11 40 -2z m-20 -28 c3 -5 1 -12 -4 -15 -12 -8 -41 3 -41 15 0 12 37 12 45 0z
m129 -24 c29 -21 2 -31 -34 -12 -30 15 -36 26 -24 38 7 7 26 -2 58 -26z
m-1279 3 c3 -5 1 -10 -4 -10 -6 0 -11 5 -11 10 0 6 2 10 4 10 3 0 8 -4 11 -10z
m1045 0 c0 -5 -9 -10 -20 -10 -11 0 -20 5 -20 10 0 6 9 10 20 10 11 0 20 -4
20 -10z m75 -10 c3 -5 -1 -10 -9 -10 -8 0 -18 5 -21 10 -3 6 1 10 9 10 8 0 18
-4 21 -10z m135 -32 c0 -13 -19 -9 -45 8 -14 9 -22 20 -19 25 6 10 64 -20 64
-33z m-1270 12 c0 -5 -5 -10 -11 -10 -5 0 -7 5 -4 10 3 6 8 10 11 10 2 0 4 -4
4 -10z m1015 0 c3 -5 -3 -10 -14 -10 -12 0 -21 5 -21 10 0 6 6 10 14 10 8 0
18 -4 21 -10z m215 -20 c14 -10 21 -22 17 -26 -10 -10 -78 26 -71 37 8 14 27
10 54 -11z m-260 -10 c0 -5 -5 -10 -11 -10 -5 0 -7 5 -4 10 3 6 8 10 11 10 2
0 4 -4 4 -10z m225 -12 c14 -6 25 -17 25 -24 0 -24 -22 -26 -46 -3 -39 37 -29
50 21 27z m-257 -40 c-7 -19 -38 -22 -38 -4 0 10 9 16 21 16 12 0 19 -5 17
-12z m235 -2 c22 -17 22 -26 -3 -26 -11 0 -20 -5 -20 -11 0 -20 -30 -41 -48
-33 -15 6 -14 8 6 11 12 3 22 11 22 19 0 8 5 14 11 14 6 0 8 9 4 20 -7 23 2
25 28 6z m-1418 -6 c3 -5 -1 -10 -9 -10 -9 0 -16 5 -16 10 0 6 4 10 9 10 6 0
13 -4 16 -10z m-1505 -10 c0 -5 -4 -10 -10 -10 -5 0 -10 5 -10 10 0 6 5 10 10
10 6 0 10 -4 10 -10z m1660 0 c0 -5 -4 -10 -10 -10 -5 0 -10 5 -10 10 0 6 5
10 10 10 6 0 10 -4 10 -10z m1090 -5 c0 -17 -2 -18 -24 -9 -23 9 -20 24 4 24
11 0 20 -7 20 -15z m-109 -20 c0 -13 -41 -19 -41 -7 0 11 20 22 33 18 5 -1 8
-6 8 -11z m73 9 c23 -9 20 -34 -3 -34 -22 0 -35 15 -26 30 7 12 8 12 29 4z
m111 -40 c26 -17 33 -34 13 -34 -14 0 -48 30 -48 42 0 12 8 10 35 -8z m-231 0
c22 -9 10 -23 -14 -17 -11 3 -17 9 -14 14 6 11 8 11 28 3z m94 -3 c10 -6 10
-10 -3 -21 -12 -10 -18 -10 -30 0 -13 11 -13 15 -3 21 7 5 15 9 18 9 3 0 11
-4 18 -9z m110 -20 c28 -24 28 -31 -2 -31 -26 0 -51 24 -41 40 9 14 16 12 43
-9z m-1373 -1 c3 -5 1 -10 -4 -10 -6 0 -11 5 -11 10 0 6 2 10 4 10 3 0 8 -4
11 -10z m108 -54 c-18 -25 -33 -33 -33 -18 0 4 10 20 22 35 27 34 37 18 11
-17z m1037 34 c0 -5 -9 -10 -20 -10 -11 0 -20 5 -20 10 0 6 9 10 20 10 11 0
20 -4 20 -10z m84 1 c3 -4 3 -11 0 -14 -8 -8 -34 3 -34 14 0 11 27 12 34 0z
m116 -16 c13 -16 6 -35 -14 -35 -18 0 -39 27 -31 40 9 14 31 12 45 -5z m-241
-14 c11 -7 10 -11 -5 -19 -27 -13 -48 -4 -33 14 13 16 19 17 38 5z m95 0 c9
-14 -22 -34 -40 -27 -13 5 -14 9 -4 21 14 17 36 20 44 6z m105 -25 c8 -10 9
-16 1 -21 -16 -10 -50 4 -50 21 0 18 34 18 49 0z m-253 -17 c9 -16 -10 -31
-30 -23 -13 5 -14 9 -5 20 14 17 25 18 35 3z m100 0 c3 -6 2 -15 -2 -19 -12
-12 -38 5 -30 19 9 14 23 14 32 0z m-1076 -9 c0 -5 -4 -10 -10 -10 -5 0 -10 5
-10 10 0 6 5 10 10 10 6 0 10 -4 10 -10z m1200 -21 c0 -15 -30 -23 -42 -11 -6
6 -8 18 -4 27 4 13 10 14 26 5 11 -6 20 -15 20 -21z m-1248 -14 c-2 -14 -8
-25 -13 -25 -10 0 -11 12 -3 34 10 25 22 19 16 -9z m898 5 c0 -5 -4 -10 -9
-10 -6 0 -13 5 -16 10 -3 6 1 10 9 10 9 0 16 -4 16 -10z m193 -5 c-4 -15 -36
-12 -41 3 -3 9 3 13 19 10 13 -1 23 -7 22 -13z m-105 -7 c-3 -7 -18 -14 -34
-16 -28 -2 -28 -2 -10 13 24 18 49 20 44 3z m63 -31 c-5 -5 -17 -7 -26 -3 -14
5 -15 9 -5 21 10 12 16 13 27 4 9 -8 10 -16 4 -22z m153 24 c3 -5 0 -13 -7
-19 -15 -13 -42 1 -33 17 9 13 33 15 40 2z m-1334 -25 c0 -11 -19 -15 -25 -6
-3 5 1 10 9 10 9 0 16 -2 16 -4z m120 -6 c0 -5 -4 -10 -10 -10 -5 0 -10 5 -10
10 0 6 5 10 10 10 6 0 10 -4 10 -10z m936 -12 c-9 -5 -24 -7 -34 -5 -14 3 -12
6 8 14 29 12 50 5 26 -9z m244 2 c0 -5 -5 -12 -11 -16 -14 -8 -33 11 -25 25 7
11 36 4 36 -9z m-330 6 c0 -3 -4 -8 -10 -11 -5 -3 -10 -1 -10 4 0 6 5 11 10
11 6 0 10 -2 10 -4z m178 -8 c-7 -19 -38 -22 -38 -4 0 10 9 16 21 16 12 0 19
-5 17 -12z m-1048 -17 c0 -13 -26 -32 -33 -24 -8 7 11 33 24 33 5 0 9 -4 9 -9z
m-130 -11 c0 -5 -2 -10 -4 -10 -3 0 -8 5 -11 10 -3 6 -1 10 4 10 6 0 11 -4 11
-10z m1035 -10 c-3 -5 -15 -10 -26 -10 -10 0 -19 5 -19 10 0 6 12 10 26 10 14
0 23 -4 19 -10z m-965 -35 c0 -8 -4 -15 -10 -15 -5 0 -10 7 -10 15 0 8 5 15
10 15 6 0 10 -7 10 -15z m928 -3 c3 -9 -2 -13 -14 -10 -9 1 -19 9 -22 16 -3 9
2 13 14 10 9 -1 19 -9 22 -16z m-958 -33 c0 -5 -7 -9 -15 -9 -15 0 -20 12 -9
23 8 8 24 -1 24 -14z m939 5 c2 -2 -4 -10 -13 -19 -12 -12 -20 -14 -36 -5 -23
12 -26 26 -7 33 11 5 47 -1 56 -9z m41 -24 c0 -5 -7 -10 -16 -10 -8 0 -12 5
-9 10 3 6 10 10 16 10 5 0 9 -4 9 -10z m-1010 -10 c0 -5 -7 -10 -16 -10 -8 0
-12 5 -9 10 3 6 10 10 16 10 5 0 9 -4 9 -10z m-1613 -6 c-3 -3 -12 -4 -19 -1
-8 3 -5 6 6 6 11 1 17 -2 13 -5z m2528 -3 c7 -12 -31 -25 -45 -16 -6 4 -8 11
-5 16 8 12 42 12 50 0z m-118 -7 c-3 -3 -12 -4 -19 -1 -8 3 -5 6 6 6 11 1 17
-2 13 -5z m183 -2 c0 -10 -41 -35 -47 -28 -9 8 17 36 33 36 8 0 14 -3 14 -8z
m-2468 -32 c22 0 23 -23 3 -40 -9 -7 -14 -19 -11 -27 3 -7 1 -13 -4 -13 -6 0
-10 -9 -10 -19 0 -11 -4 -22 -9 -25 -17 -11 -18 -56 -3 -78 15 -21 15 -22 0
-10 -13 10 -18 9 -30 -10 -19 -30 -32 -106 -16 -90 7 7 19 12 28 12 9 -1 6 -6
-9 -14 -14 -8 -30 -12 -37 -9 -7 2 -15 -5 -19 -15 -5 -19 -51 -42 -81 -42 -22
0 -16 37 21 131 19 49 35 98 35 108 0 11 4 21 8 23 4 2 15 26 24 53 13 42 20
51 42 53 14 2 26 8 26 14 0 5 -7 8 -15 4 -8 -3 -15 -2 -15 3 0 17 14 20 34 6
11 -8 28 -15 38 -15z m2342 14 c21 -8 20 -30 0 -38 -24 -9 -47 13 -33 30 13
16 12 16 33 8z m217 -12 c13 -10 32 -21 42 -25 9 -3 17 -16 17 -27 0 -33 -32
-23 -67 20 -18 21 -33 41 -33 44 0 11 17 6 41 -12z m-1111 -2 c0 -5 -7 -10
-16 -10 -8 0 -12 5 -9 10 3 6 10 10 16 10 5 0 9 -4 9 -10z m950 -25 c-7 -9
-15 -13 -18 -10 -3 2 1 11 8 20 7 9 15 13 18 10 3 -2 -1 -11 -8 -20z m150 -32
c0 -26 -31 -26 -57 -1 -23 24 -24 26 -8 42 17 16 19 16 41 -5 13 -12 24 -29
24 -36z m-1122 19 c2 -7 -3 -12 -12 -12 -9 0 -16 7 -16 16 0 17 22 14 28 -4z
m887 -2 c9 -15 -43 -36 -56 -23 -6 6 -8 16 -5 22 9 14 53 14 61 1z m55 -9 c0
-5 -7 -12 -16 -15 -24 -9 -28 -7 -14 9 14 17 30 20 30 6z m-625 -11 c3 -6 -1
-7 -9 -4 -18 7 -21 14 -7 14 6 0 13 -4 16 -10z m744 -14 l22 -24 -33 -23 c-18
-13 -36 -27 -39 -32 -7 -10 -69 19 -69 32 0 4 9 16 19 25 19 17 21 17 42 -3
32 -29 48 -26 20 3 -23 24 -21 46 3 46 7 0 23 -11 35 -24z m-1199 4 c0 -5 -5
-10 -11 -10 -5 0 -7 5 -4 10 3 6 8 10 11 10 2 0 4 -4 4 -10z m108 -8 c2 -7 -3
-12 -12 -12 -9 0 -16 7 -16 16 0 17 22 14 28 -4z m852 -2 c12 -8 12 -10 -3
-16 -20 -7 -47 1 -47 16 0 12 30 13 50 0z m-2030 -10 c0 -5 -5 -10 -11 -10 -5
0 -7 5 -4 10 3 6 8 10 11 10 2 0 4 -4 4 -10z m120 -4 c0 -19 -23 -33 -28 -18
-2 7 -8 12 -13 12 -6 0 -7 -4 -4 -10 3 -5 1 -10 -4 -10 -13 0 -13 3 -5 24 8
20 54 21 54 2z m1975 -5 c-3 -6 -14 -11 -23 -11 -15 1 -15 2 2 15 21 16 32 13
21 -4z m-2135 -1 c0 -5 -2 -10 -4 -10 -3 0 -8 5 -11 10 -3 6 -1 10 4 10 6 0
11 -4 11 -10z m1190 -16 c0 -17 -22 -14 -28 4 -2 7 3 12 12 12 9 0 16 -7 16
-16z m839 7 c8 -5 9 -11 3 -15 -13 -8 -42 3 -42 15 0 11 21 11 39 0z m-2102
-44 c2 -25 -12 -10 -22 22 -6 20 -5 22 7 11 8 -8 15 -22 15 -33z m27 27 c3 -8
2 -12 -4 -9 -6 3 -10 10 -10 16 0 14 7 11 14 -7z m226 -3 c0 -5 2 -16 5 -24 4
-8 0 -14 -10 -14 -9 0 -15 9 -15 24 0 13 5 23 10 23 6 0 10 -4 10 -9z m1910
-1 c0 -5 -4 -10 -10 -10 -5 0 -10 5 -10 10 0 6 5 10 10 10 6 0 10 -4 10 -10z
m-95 -9 c3 -5 1 -12 -4 -15 -12 -8 -41 3 -41 15 0 12 37 12 45 0z m65 -16 c0
-8 -7 -15 -15 -15 -16 0 -20 12 -8 23 11 12 23 8 23 -8z m145 3 c29 -13 32
-23 8 -32 -11 -5 -26 2 -42 19 -21 20 -22 25 -9 25 9 0 29 -5 43 -12z m-2355
-14 c0 -8 -4 -12 -10 -9 -5 3 -10 10 -10 16 0 5 5 9 10 9 6 0 10 -7 10 -16z
m1320 1 c0 -8 -6 -14 -12 -12 -7 1 -12 -6 -10 -15 2 -10 -2 -18 -8 -18 -14 0
-13 16 2 40 15 24 28 26 28 5z m-1214 -21 c-4 -9 -9 -15 -11 -12 -3 3 -3 13 1
22 4 9 9 15 11 12 3 -3 3 -13 -1 -22z m1991 11 c-2 -5 -12 -10 -22 -10 -10 0
-20 5 -22 10 -1 6 8 10 22 10 14 0 24 -4 22 -10z m227 -36 c-2 -4 -11 -6 -20
-2 -18 7 -36 38 -27 47 9 8 54 -35 47 -45z m-2346 16 c-3 -3 -9 2 -12 12 -6
14 -5 15 5 6 7 -7 10 -15 7 -18z m2197 15 c3 -6 -1 -13 -10 -16 -19 -8 -30 0
-20 15 8 14 22 14 30 1z m-2165 -25 c0 -8 -4 -15 -10 -15 -5 0 -7 7 -4 15 4 8
8 15 10 15 2 0 4 -7 4 -15z m2274 -35 c-8 -8 -18 -5 -35 9 -20 18 -22 22 -9
30 20 13 60 -23 44 -39z m-1917 -79 c3 -57 2 -101 -3 -101 -26 1 -43 30 -49
81 -3 30 -8 70 -11 89 -6 35 -6 35 15 16 21 -19 21 -19 21 9 0 21 3 26 11 18
6 -6 13 -56 16 -112z m1770 103 c5 -15 -20 -24 -37 -14 -7 4 -9 13 -5 19 8 14
37 11 42 -5z m-867 -22 c0 -5 -9 -17 -20 -27 -11 -10 -20 -13 -20 -7 0 7 5 12
10 12 6 0 10 7 10 15 0 8 5 15 10 15 6 0 10 -4 10 -8z m809 -6 c10 -12 8 -13
-8 -9 -12 3 -21 9 -21 14 0 14 16 11 29 -5z m154 -4 c24 -26 10 -34 -26 -16
-23 12 -27 18 -16 25 20 12 24 11 42 -9z m-278 -13 c15 -15 -10 -11 -41 7
l-29 16 30 -7 c17 -3 34 -11 40 -16z m-1905 -5 c0 -8 -4 -12 -10 -9 -5 3 -10
10 -10 16 0 5 5 9 10 9 6 0 10 -7 10 -16z m176 7 c-4 -5 -3 -16 0 -25 5 -13 9
-14 20 -5 25 20 44 3 44 -40 0 -40 0 -40 -26 -29 -16 8 -34 30 -45 56 -23 53
-23 52 -3 52 8 0 13 -4 10 -9z m-26 -52 c0 -10 -12 -11 -34 -3 -17 6 -22 35
-9 48 8 8 43 -29 43 -45z m918 42 c11 -7 11 -9 -1 -14 -16 -6 -27 0 -27 15 0
10 11 10 28 -1z m1082 -10 c8 -16 6 -21 -11 -26 -29 -9 -62 21 -39 35 23 15
38 12 50 -9z m-2087 -4 c3 -8 -1 -14 -9 -14 -15 0 -18 9 -7 20 9 9 10 9 16 -6z
m1800 -22 c-3 -9 -8 -14 -10 -11 -3 3 -2 9 2 15 9 16 15 13 8 -4z m67 5 c0 -5
-5 -10 -11 -10 -5 0 -7 5 -4 10 3 6 8 10 11 10 2 0 4 -4 4 -10z m-766 -21 c-3
-5 -10 -7 -15 -3 -5 3 -7 10 -3 15 3 5 10 7 15 3 5 -3 7 -10 3 -15z m946 -10
c0 -6 -7 -6 -20 1 -11 6 -20 15 -20 21 0 6 7 6 20 -1 11 -6 20 -15 20 -21z
m-189 1 c13 0 11 -27 -2 -35 -13 -9 -51 24 -43 37 3 5 13 7 21 4 8 -3 19 -6
24 -6z m-775 -27 c-7 -7 -26 7 -26 19 0 6 6 6 15 -2 9 -7 13 -15 11 -17z
m-1456 -13 c0 -12 -7 -20 -17 -20 -15 0 -16 2 -3 10 11 7 11 10 2 10 -7 0 -10
5 -7 10 10 17 25 11 25 -10z m417 6 c77 -21 134 -53 192 -107 91 -88 125 -193
119 -369 -3 -93 -7 -112 -33 -163 -58 -116 -199 -214 -321 -224 -149 -13 -308
89 -391 250 -26 50 -27 59 -27 212 -1 191 0 194 114 307 58 57 89 80 120 88
23 6 48 9 56 6 7 -3 16 -1 19 4 9 14 92 12 152 -4z m903 4 c0 -5 -2 -10 -4
-10 -3 0 -8 5 -11 10 -3 6 -1 10 4 10 6 0 11 -4 11 -10z m865 -2 c29 -13 28
-32 -3 -36 -21 -3 -48 29 -35 42 8 8 8 8 38 -6z m-755 -18 c0 -5 -4 -10 -9
-10 -6 0 -13 5 -16 10 -3 6 1 10 9 10 9 0 16 -4 16 -10z m650 -4 c0 -11 -19
-15 -25 -6 -3 5 1 10 9 10 9 0 16 -2 16 -4z m84 -37 c-8 -13 -40 -11 -53 4 -8
10 -7 17 1 25 13 13 62 -14 52 -29z m-129 11 c3 -5 -1 -10 -9 -10 -9 0 -16 5
-16 10 0 6 4 10 9 10 6 0 13 -4 16 -10z m-635 -10 c0 -5 -4 -10 -10 -10 -5 0
-10 5 -10 10 0 6 5 10 10 10 6 0 10 -4 10 -10z m719 -14 c17 -21 -4 -30 -29
-13 -11 8 -17 17 -13 20 11 11 30 8 42 -7z m-115 -17 c-7 -11 -34 -12 -34 -1
0 14 11 21 26 15 8 -3 11 -9 8 -14z m90 -30 c-8 -13 -40 -11 -53 4 -8 10 -7
17 1 25 13 13 62 -14 52 -29z m-724 21 c0 -5 -2 -10 -4 -10 -3 0 -8 5 -11 10
-3 6 -1 10 4 10 6 0 11 -4 11 -10z m576 -10 c8 0 14 -4 14 -10 0 -15 -22 -12
-45 7 -18 14 -18 15 -2 9 10 -3 25 -6 33 -6z m-602 -21 c-8 -14 -24 -10 -24 6
0 9 6 12 15 9 8 -4 12 -10 9 -15z m696 -4 c22 -26 -4 -43 -30 -20 -20 18 -18
35 4 35 8 0 19 -7 26 -15z m-134 -15 c9 0 12 -4 9 -10 -9 -14 -18 -13 -41 6
-17 14 -17 15 -1 10 10 -3 25 -6 33 -6z m-588 -19 c3 -8 -1 -12 -9 -9 -7 2
-15 10 -17 17 -3 8 1 12 9 9 7 -2 15 -10 17 -17z m676 2 c10 -24 -8 -37 -34
-23 -17 9 -19 14 -9 26 15 19 35 18 43 -3z m-391 -46 c48 -27 87 -50 87 -51 0
-1 -29 -28 -65 -60 l-65 -57 -60 48 c-33 26 -60 55 -60 63 1 8 14 31 30 50 17
19 30 40 30 48 0 16 -7 19 103 -41z m272 23 c8 -13 -15 -13 -35 0 -12 8 -11
10 7 10 12 0 25 -4 28 -10z m-585 -15 c0 -8 -4 -15 -10 -15 -5 0 -10 7 -10 15
0 8 5 15 10 15 6 0 10 -7 10 -15z m659 6 c12 -8 12 -12 2 -25 -17 -20 -35 -20
-51 -1 -23 27 15 47 49 26z m-109 -21 c0 -5 -4 -10 -10 -10 -5 0 -10 5 -10 10
0 6 5 10 10 10 6 0 10 -4 10 -10z m-570 -20 c0 -5 -4 -10 -10 -10 -5 0 -10 5
-10 10 0 6 5 10 10 10 6 0 10 -4 10 -10z m625 -4 c18 -13 18 -14 -3 -20 -26
-8 -42 -1 -42 20 0 18 21 18 45 0z m-85 -5 c0 -16 -28 -20 -40 -5 -10 12 -8
14 14 14 14 0 26 -4 26 -9z m17 -28 c-9 -9 -20 -13 -24 -9 -4 4 -1 11 7 16 25
16 35 11 17 -7z m-629 -41 l23 -41 -25 -7 c-14 -3 -32 -4 -40 -1 -18 7 -29 79
-13 89 19 12 30 4 55 -40z m557 28 c-3 -5 -10 -10 -16 -10 -5 0 -9 5 -9 10 0
6 7 10 16 10 8 0 12 -4 9 -10z m-277 -62 c28 -21 52 -42 52 -46 0 -5 -12 -20
-27 -34 l-28 -27 -55 49 -55 48 20 23 c11 12 14 19 8 15 -9 -5 -11 -2 -7 8 7
19 26 12 92 -36z m319 37 c8 -23 -2 -28 -27 -15 -18 10 -20 14 -9 21 20 13 29
11 36 -6z m-31 -30 c14 -11 15 -14 4 -14 -8 0 -24 6 -34 14 -15 11 -16 15 -5
15 8 0 24 -7 35 -15z m-10 -33 c-7 -7 -46 9 -46 18 0 5 11 4 25 -2 14 -6 23
-13 21 -16z m-36 -12 c13 -9 13 -11 0 -20 -8 -5 -17 -10 -20 -10 -3 0 -12 5
-20 10 -13 9 -13 11 0 20 8 5 17 10 20 10 3 0 12 -5 20 -10z m-480 -7 c0 -5 3
-18 6 -29 5 -18 1 -22 -26 -26 -26 -4 -33 -1 -41 19 -12 31 -12 31 9 36 29 8
52 7 52 0z m380 -3 c0 -5 -4 -10 -9 -10 -6 0 -13 5 -16 10 -3 6 1 10 9 10 9 0
16 -4 16 -10z m-325 -20 c-3 -5 1 -10 9 -10 9 0 16 -5 16 -11 0 -5 4 -8 9 -4
5 3 12 1 16 -5 9 -15 -27 -12 -47 4 -20 15 -24 36 -7 36 5 0 7 -4 4 -10z m373
-2 c17 -17 15 -28 -5 -28 -26 0 -47 16 -39 29 9 14 29 14 44 -1z m-57 -19 c24
-17 27 -24 18 -35 -6 -8 -16 -14 -21 -14 -11 0 -58 50 -58 61 0 16 31 9 61
-12z m169 1 c0 -5 -2 -10 -4 -10 -3 0 -8 5 -11 10 -3 6 -1 10 4 10 6 0 11 -4
11 -10z m-36 -15 c3 -9 -1 -18 -10 -22 -19 -7 -28 2 -21 22 8 19 23 19 31 0z
m-349 -5 c3 -5 1 -10 -4 -10 -6 0 -11 5 -11 10 0 6 2 10 4 10 3 0 8 -4 11 -10z
m-235 -10 c0 -5 6 -10 14 -10 9 0 13 -11 12 -32 -1 -25 -7 -34 -23 -36 -17 -3
-21 3 -25 35 -3 21 -3 41 -1 46 6 10 23 9 23 -3z m126 2 c7 -4 13 -27 15 -51
4 -47 2 -49 -60 -42 -12 1 -30 56 -22 68 6 10 42 32 51 33 3 0 10 -4 16 -8z
m280 -16 l28 -23 -22 -7 c-17 -6 -28 -2 -42 16 -11 13 -19 26 -20 31 0 15 30
6 56 -17z m129 -6 c3 -5 -1 -10 -9 -10 -9 0 -16 5 -16 10 0 6 4 10 9 10 6 0
13 -4 16 -10z m-327 -12 c7 -7 12 -27 12 -46 0 -29 -3 -33 -22 -30 -16 2 -25
12 -29 33 -9 50 10 72 39 43z m89 -55 c12 -49 6 -57 -31 -43 -18 7 -26 17 -26
34 0 69 42 75 57 9z m203 32 c0 -8 -4 -15 -9 -15 -13 0 -22 16 -14 24 11 11
23 6 23 -9z m-40 -26 c0 -5 -4 -9 -10 -9 -5 0 -10 7 -10 16 0 8 5 12 10 9 6
-3 10 -10 10 -16z m-90 -46 c0 -19 -30 -16 -37 3 -7 20 18 38 29 21 4 -7 8
-18 8 -24z m-330 7 c-6 -12 -8 -30 -5 -40 5 -17 2 -20 -23 -20 -54 0 -72 57
-22 71 50 14 62 11 50 -11z m-190 -43 c0 -15 -5 -17 -30 -12 -26 6 -30 4 -30
-13 0 -11 6 -22 13 -25 9 -3 9 -9 1 -23 -13 -23 -49 -25 -49 -4 -1 18 -52 17
-69 -1 -8 -8 -6 -10 9 -7 28 5 61 -37 45 -57 -6 -7 -21 -15 -33 -17 -14 -2
-23 -11 -25 -26 -2 -12 -12 -27 -22 -32 -22 -12 -70 -3 -70 12 0 5 -4 6 -10 3
-5 -3 -7 -19 -3 -35 5 -27 3 -30 -20 -30 -14 0 -27 7 -31 15 -3 8 -12 12 -20
9 -14 -5 -90 28 -100 44 -3 5 5 19 18 31 l24 23 61 -25 c77 -31 89 -22 16 12
l-55 26 26 28 c14 16 31 26 38 24 54 -20 117 -30 128 -19 8 8 6 10 -9 6 -22
-6 -117 32 -111 44 2 4 10 20 18 35 10 20 18 26 29 20 36 -16 128 -15 167 3
78 36 93 34 94 -9z m290 14 c0 -44 -54 -59 -69 -18 -13 33 -3 47 35 47 31 0
34 -3 34 -29z m559 11 c-15 -3 -16 -6 -2 -33 20 -41 13 -55 -17 -30 -23 19
-23 20 -5 21 18 0 18 1 -4 16 l-23 16 24 13 c12 6 28 9 33 6 6 -3 3 -7 -6 -9z
m-488 -2 c15 0 19 -7 19 -30 0 -38 -23 -49 -50 -25 -25 22 -28 70 -4 61 9 -3
24 -6 35 -6z m563 1 c11 -4 15 -10 10 -13 -10 -6 -54 8 -54 17 0 7 21 5 44 -4z
m-842 -26 c4 -21 1 -25 -18 -25 -13 0 -28 9 -34 19 -15 28 -13 31 19 31 23 0
30 -5 33 -25z m918 4 c0 -4 -7 -6 -15 -3 -8 4 -15 10 -15 15 0 4 7 6 15 3 8
-4 15 -10 15 -15z m-528 -41 c-3 -29 -8 -38 -22 -38 -24 0 -50 26 -50 49 0 25
8 30 44 29 30 -1 31 -3 28 -40z m452 36 c23 -9 20 -24 -5 -24 -21 0 -21 0 2
-20 20 -16 21 -21 10 -29 -8 -5 -11 -16 -8 -25 4 -11 1 -16 -10 -16 -13 0 -14
-3 -5 -12 14 -14 16 -48 3 -48 -5 0 -13 -10 -16 -21 -6 -17 -9 -19 -16 -8 -11
18 -11 32 0 24 14 -8 24 34 12 49 -7 8 -7 23 -2 44 6 20 6 34 0 38 -6 3 -8 12
-5 19 2 7 -1 18 -7 24 -8 8 -5 11 10 11 12 0 28 -3 37 -6z m-366 -13 c12 -7
11 -14 -2 -40 -20 -37 -43 -40 -52 -6 -12 47 16 70 54 46z m453 -27 c13 -16
12 -17 -8 -12 -29 8 -29 1 -1 -29 20 -21 20 -23 3 -23 -15 0 -16 -3 -7 -12 13
-13 16 -48 5 -48 -14 1 -49 34 -56 53 -6 15 -3 17 13 12 18 -6 18 -4 5 22 -11
23 -13 43 -6 71 2 6 39 -18 52 -34z m-387 -12 c0 -12 3 -19 8 -16 4 3 8 0 8
-5 0 -13 -20 -14 -37 -3 -15 9 -5 54 11 49 6 -2 11 -13 10 -25z m1466 18 c0
-13 -11 -13 -30 0 -12 8 -11 10 8 10 12 0 22 -4 22 -10z m-1889 -13 c-1 -4 -1
-20 -1 -36 0 -36 -33 -52 -57 -28 -22 21 -9 64 20 70 28 5 39 4 38 -6z m113
-60 c-6 -44 -9 -47 -36 -47 -21 0 -31 6 -38 26 -19 49 -13 73 23 82 46 13 59
-2 51 -61z m1830 57 c4 -10 1 -14 -6 -12 -15 5 -23 28 -10 28 5 0 13 -7 16
-16z m-2126 -22 c3 -18 -1 -22 -23 -22 -21 0 -26 4 -21 16 3 9 6 20 6 26 0 20
35 2 38 -20z m80 18 c10 0 12 -8 7 -29 -5 -22 -2 -32 14 -43 14 -10 18 -21 14
-36 -3 -12 -8 -22 -12 -22 -18 0 -51 33 -51 51 0 11 -7 22 -15 25 -9 4 -15 19
-15 36 0 27 3 30 23 24 12 -3 28 -6 35 -6z m972 0 c8 -5 12 -12 9 -15 -8 -8
-39 5 -39 16 0 11 11 11 30 -1z m1030 -56 c0 -25 -18 -15 -29 17 -6 18 -11 35
-11 38 1 12 40 -42 40 -55z m-1712 34 c7 -7 12 -29 12 -49 0 -28 -5 -38 -19
-42 -29 -7 -43 7 -43 46 0 55 21 74 50 45z m477 2 c3 -5 -1 -10 -10 -10 -9 0
-13 5 -10 10 3 6 8 10 10 10 2 0 7 -4 10 -10z m1271 -17 c7 -10 14 -29 14 -43
0 -21 -2 -22 -14 -10 -15 16 -30 70 -20 70 4 0 13 -8 20 -17z m-1064 -10 c28
-25 24 -45 -7 -31 -14 6 -25 19 -25 30 0 22 8 23 32 1z m962 -7 c9 -14 12 -27
8 -30 -5 -3 -16 8 -26 25 -21 35 -5 39 18 5z m-1454 -35 c0 -51 -9 -62 -42
-53 -27 7 -24 65 5 85 34 24 37 21 37 -32z m541 32 c13 -16 12 -17 -3 -4 -10
7 -18 15 -18 17 0 8 8 3 21 -13z m-1152 -7 c19 -23 2 -46 -35 -46 -39 0 -40 2
-18 35 18 28 36 32 53 11z m73 -26 c2 -21 -2 -26 -24 -28 -24 -3 -27 0 -26 27
1 19 7 31 17 34 21 5 30 -4 33 -33z m448 -5 c0 -43 -1 -45 -29 -45 -36 0 -39
5 -34 53 5 33 8 37 34 37 28 0 29 -2 29 -45z m178 -11 c-2 -23 -9 -30 -30 -32
-26 -3 -28 -1 -28 32 0 28 4 35 23 38 30 5 39 -4 35 -38z m1522 15 c0 -10 -4
-19 -10 -19 -5 0 -10 12 -10 26 0 14 4 23 10 19 6 -3 10 -15 10 -26z m-176 -2
c15 -24 -2 -34 -19 -11 -8 10 -15 23 -15 27 0 13 22 3 34 -16z m-952 -4 c34
-30 17 -63 -19 -38 -14 10 -19 22 -16 35 6 24 11 25 35 3z m1023 -1 c0 -18
-20 -15 -23 4 -3 10 1 15 10 12 7 -3 13 -10 13 -16z m-1860 -5 c13 -14 7 -85
-8 -79 -4 1 -14 2 -22 2 -8 0 -15 7 -15 15 0 8 -4 15 -10 15 -5 0 -10 -8 -10
-19 0 -10 -8 -21 -17 -25 -10 -3 -25 -9 -33 -12 -9 -3 -8 0 4 10 10 8 15 19
11 25 -3 6 -1 11 5 11 6 0 18 16 26 35 15 37 44 46 69 22z m487 -9 c-7 -7 -12
-8 -12 -2 0 14 12 26 19 19 2 -3 -1 -11 -7 -17z m268 -11 c8 -14 11 -29 7 -33
-11 -11 -47 26 -47 48 0 26 21 18 40 -15z m1149 5 c13 -25 -4 -54 -19 -32 -13
19 -13 50 0 50 5 0 14 -8 19 -18z m-992 -38 c-12 -13 -37 6 -37 28 l0 22 22
-21 c12 -13 19 -25 15 -29z m-2027 16 c0 -4 -10 -15 -22 -26 -21 -19 -21 -19
-16 2 4 17 2 20 -13 17 -11 -3 -19 -1 -19 5 0 11 37 20 58 14 6 -2 12 -7 12
-12z m788 12 c17 -11 5 -40 -19 -47 -26 -9 -36 0 -36 30 0 19 5 25 21 25 11 0
27 -4 34 -8z m424 -27 c-4 -47 -10 -57 -33 -53 -31 4 -43 28 -31 58 8 20 17
26 38 25 26 0 29 -3 26 -30z m404 -3 c-4 -3 -12 0 -19 7 -9 9 -9 14 3 21 11 7
16 5 18 -6 2 -9 1 -18 -2 -22z m1268 12 c4 -15 4 -29 1 -32 -8 -8 -25 19 -25
41 0 26 17 20 24 -9z m76 6 c6 -11 15 -18 20 -15 12 7 24 -40 15 -55 -9 -15
-25 -2 -25 22 0 17 -2 18 -15 8 -19 -16 -21 -14 -30 28 -5 25 -3 32 9 32 8 0
20 -9 26 -20z m-2091 1 c12 -8 13 -14 3 -35 -19 -43 -52 -31 -58 21 -2 18 3
23 19 23 12 0 28 -4 36 -9z m91 -6 c19 -23 4 -45 -30 -45 -25 0 -30 4 -30 24
0 35 38 48 60 21z m970 -5 c23 -23 26 -40 8 -40 -21 0 -34 13 -40 38 -7 27 6
28 32 2z m1130 -4 c0 -14 -4 -28 -10 -31 -6 -4 -10 7 -10 24 0 17 5 31 10 31
6 0 10 -11 10 -24z m-1758 -3 c21 -25 9 -67 -20 -71 -34 -5 -49 12 -44 53 3
28 8 35 27 35 12 0 29 -8 37 -17z m-865 -4 c7 -7 29 -20 50 -30 22 -10 30 -18
21 -18 -22 -1 -24 -20 -3 -28 9 -3 22 2 30 13 7 11 17 16 21 12 11 -11 -22
-43 -46 -45 -11 -1 -20 3 -20 8 0 6 -20 7 -49 4 -43 -5 -51 -3 -65 17 -22 31
-20 53 7 66 29 14 41 14 54 1z m1423 -4 c7 -8 10 -22 6 -30 -7 -19 -36 -20
-36 -1 0 8 -3 21 -6 30 -8 21 19 21 36 1z m1234 -17 c-10 -16 -22 -7 -17 13 4
15 8 17 14 8 4 -7 5 -17 3 -21z m-3031 9 c22 -12 23 -15 11 -32 -8 -10 -14
-14 -14 -8 0 7 -9 14 -19 18 -12 4 -18 12 -14 21 6 17 5 17 36 1z m1432 -15
c-14 -70 -15 -72 -40 -72 -13 0 -26 4 -30 10 -11 18 8 61 34 74 30 16 41 13
36 -12z m1427 11 c6 -24 -1 -53 -13 -53 -5 0 -9 16 -9 35 0 36 15 48 22 18z
m-1525 -33 c-11 -40 -27 -49 -56 -31 -12 8 -12 14 -1 40 10 24 19 31 40 31 27
0 27 0 17 -40z m181 -1 c3 -39 -15 -63 -42 -53 -17 6 -20 32 -10 72 5 16 13
22 28 20 16 -2 22 -11 24 -39z m418 27 c3 -8 4 -23 2 -33 -3 -14 -8 -11 -21
15 -15 28 -16 32 -2 32 9 0 18 -6 21 -14z m-1286 -16 c0 -29 -59 -38 -68 -11
-3 10 0 12 11 8 9 -3 18 0 21 8 5 15 36 10 36 -5z m-370 -4 c0 -7 9 -25 20
-39 l21 -26 -41 -19 c-22 -10 -38 -20 -36 -23 2 -2 -7 -4 -20 -4 -24 0 -25 2
-19 50 4 28 14 56 23 63 21 16 52 15 52 -2z m448 6 c20 -3 14 -20 -14 -38 -26
-18 -38 -13 -48 21 -6 21 6 24 62 17z m1130 -30 c4 -36 -3 -40 -29 -16 -20 18
-14 56 10 52 10 -2 17 -15 19 -36z m1112 9 c0 -29 -14 -49 -23 -34 -8 12 4 63
14 63 5 0 9 -13 9 -29z m-2997 5 c18 -14 17 -15 -4 -40 -22 -26 -59 -36 -59
-16 0 6 9 10 19 10 31 0 35 19 9 40 -22 18 -22 19 -3 19 11 0 28 -6 38 -13z
m127 -4 c0 -18 -34 -97 -51 -118 -14 -18 -74 -2 -73 19 3 32 76 117 101 117
16 0 23 -6 23 -18z m1465 -2 c-4 -11 -2 -20 4 -20 6 0 11 5 11 12 0 6 3 9 6 5
12 -12 -5 -37 -21 -31 -15 6 -21 35 -8 47 12 12 14 7 8 -13z m-1385 -50 l0
-59 -37 -6 c-21 -4 -46 -9 -55 -11 -16 -5 -15 1 6 46 27 58 53 90 73 90 9 0
13 -16 13 -60z m658 47 c23 -27 -35 -65 -68 -45 -26 17 -25 32 3 46 30 15 53
14 65 -1z m179 -9 c-3 -8 -6 -5 -6 6 -1 11 2 17 5 13 3 -3 4 -12 1 -19z m893
-13 c0 -7 -6 -18 -14 -24 -12 -10 -14 -6 -14 24 0 30 2 34 14 24 8 -6 14 -17
14 -24z m1000 15 c0 -11 7 -20 16 -20 20 0 16 -61 -5 -68 -11 -4 -13 3 -8 29
6 32 6 33 -9 14 -8 -11 -19 -19 -23 -18 -4 1 -8 -5 -8 -13 0 -7 9 -14 19 -14
19 0 23 -16 9 -39 -5 -8 -16 -11 -26 -8 -9 4 -14 11 -11 16 3 5 -4 11 -15 14
-17 5 -19 9 -10 26 14 25 14 31 1 31 -5 0 -10 -7 -10 -15 0 -23 -17 -18 -23 7
-7 25 10 61 24 53 5 -4 7 -10 4 -15 -3 -5 4 -14 16 -21 18 -9 21 -9 16 4 -6
16 18 57 34 57 5 0 9 -9 9 -20z m95 -19 c-3 -12 -13 -21 -22 -21 -8 0 -12 5
-9 13 3 6 9 20 12 30 9 26 28 5 19 -22z m-2098 -3 c1 -18 -4 -28 -17 -31 -24
-6 -33 18 -17 43 16 26 31 20 34 -12z m2133 10 c0 -13 -5 -30 -10 -38 -7 -11
-10 -5 -10 23 0 20 5 37 10 37 6 0 10 -10 10 -22z m-2485 -7 c0 -15 -52 -34
-66 -25 -5 2 -1 14 9 25 19 22 57 22 57 0z m605 -6 c9 -11 10 -15 1 -15 -7 0
-19 7 -27 15 -13 13 -13 15 -1 15 8 0 20 -7 27 -15z m657 -7 c13 -28 0 -68
-22 -68 -17 0 -20 31 -4 47 8 8 8 13 0 17 -15 10 -14 26 2 26 8 0 18 -10 24
-22z m-1169 -10 c-2 -13 -15 -29 -31 -36 -25 -12 -31 -12 -47 3 -29 26 -6 55
43 55 34 0 38 -3 35 -22z m82 -12 c17 -33 -7 -60 -45 -50 -31 8 -33 37 -3 58
29 21 32 20 48 -8z m527 8 c2 -6 -5 -20 -15 -32 -14 -16 -22 -18 -30 -10 -15
15 -16 38 -2 38 6 0 10 -5 10 -11 0 -5 5 -7 11 -4 6 5 4 12 -8 21 -17 14 -16
14 6 12 14 -2 26 -8 28 -14z m1806 -4 c-3 -12 -8 -19 -11 -16 -5 6 5 36 12 36
2 0 2 -9 -1 -20z m-2666 -15 c-4 -8 -14 -14 -24 -14 -17 1 -17 2 0 6 9 2 17
12 17 20 0 9 3 14 6 10 4 -3 4 -13 1 -22z m1178 15 c3 -5 1 -10 -4 -10 -6 0
-11 5 -11 10 0 6 2 10 4 10 3 0 8 -4 11 -10z m-271 -12 c-6 -10 -4 -10 7 0 35
33 49 4 27 -59 l-12 -34 -13 30 c-10 21 -13 23 -9 8 6 -31 -12 -29 -20 1 -5
22 9 66 22 66 3 0 2 -6 -2 -12z m1666 -12 c0 -24 -16 -43 -26 -33 -8 7 7 57
17 57 5 0 9 -11 9 -24z m-2520 0 c0 -15 -24 -28 -34 -19 -7 7 13 33 25 33 5 0
9 -6 9 -14z m83 0 c9 -23 -29 -65 -53 -59 -28 7 -25 28 6 52 31 25 40 26 47 7z
m909 -5 c-3 -9 -12 -27 -20 -41 -13 -24 -13 -24 -7 10 l6 35 -21 -24 c-22 -26
-25 -23 -9 12 12 27 61 34 51 8z m-628 3 c28 -11 18 -41 -15 -53 -62 -22 -75
-10 -37 34 23 27 28 28 52 19z m686 -14 c-20 -13 -33 -13 -25 0 3 6 14 10 23
10 15 0 15 -2 2 -10z m1534 -22 c-4 -13 -7 -29 -7 -35 0 -16 -13 -17 -22 -3
-4 6 -1 17 5 25 6 8 9 19 5 25 -3 5 1 10 10 10 12 0 15 -5 9 -22z m-2404 -13
c0 -23 -25 -45 -45 -40 -5 2 -23 6 -39 10 l-29 6 23 25 c16 16 34 24 57 24 28
0 33 -3 33 -25z m-215 3 c42 -19 29 -67 -15 -53 -14 4 -20 15 -20 36 0 33 0
33 35 17z m2642 -10 c-3 -8 -6 -5 -6 6 -1 11 2 17 5 13 3 -3 4 -12 1 -19z
m-2363 -4 c9 -8 16 -22 16 -30 0 -12 -4 -12 -20 -2 -15 10 -22 10 -32 0 -9 -9
-8 -12 5 -12 9 0 17 -4 17 -10 0 -11 -17 -12 -44 -1 -18 7 -17 8 6 27 13 10
23 25 20 32 -5 17 14 15 32 -4z m706 -10 c0 -2 -9 -4 -21 -4 -11 0 -18 4 -14
10 5 8 35 3 35 -6z m490 1 c0 -12 -19 -12 -23 0 -4 9 -1 12 9 8 7 -3 14 -7 14
-8z m558 -5 c-13 -20 -28 -27 -28 -12 0 10 22 32 32 32 5 0 3 -9 -4 -20z
m-1581 4 c-3 -3 -12 -4 -19 -1 -8 3 -5 6 6 6 11 1 17 -2 13 -5z m-814 -11 c-7
-2 -19 -2 -25 0 -7 3 -2 5 12 5 14 0 19 -2 13 -5z m465 -35 c3 -26 1 -28 -32
-28 -41 0 -51 12 -34 40 20 31 62 23 66 -12z m287 -24 c-18 -13 -75 -20 -75
-9 0 3 7 17 16 30 16 25 44 34 44 15 0 -5 4 -10 10 -10 5 0 7 8 4 18 -2 9 1 6
8 -7 10 -20 9 -25 -7 -37z m1055 37 c0 -5 -7 -11 -15 -15 -9 -3 -15 0 -15 9 0
8 7 15 15 15 8 0 15 -4 15 -9z m180 -10 c0 -5 -6 -14 -14 -20 -12 -10 -13 -8
-9 8 5 21 23 30 23 12z m-1645 -11 c19 -7 25 -16 23 -30 -2 -12 -5 -20 -8 -19
-3 1 -14 -3 -26 -9 -28 -15 -50 18 -32 48 7 11 14 20 15 20 1 0 14 -5 28 -10z
m191 -3 c4 -4 -2 -7 -14 -7 -11 0 -24 5 -27 10 -7 11 30 8 41 -3z m1314 -37
c6 0 8 -4 5 -10 -13 -22 -32 -9 -33 23 0 28 1 29 9 10 4 -13 13 -23 19 -23z
m-1351 -4 c10 -12 8 -13 -8 -9 -12 3 -18 9 -15 14 7 12 10 11 23 -5z m146 -10
c0 -24 -33 -36 -64 -25 l-24 9 24 21 c28 24 64 22 64 -5z m-193 -30 c-4 -7 -8
-5 -10 7 -5 25 -17 21 -28 -9 -8 -23 -11 -24 -29 -11 -16 12 -17 17 -6 30 7 9
22 17 34 19 25 4 50 -19 39 -36z m1158 0 c-19 -17 -22 -18 -17 -3 4 9 2 17 -3
17 -20 0 -9 19 13 22 31 4 34 -10 7 -36z m353 23 c-4 -15 -9 -17 -17 -9 -8 8
-7 13 4 20 8 5 16 10 17 10 0 0 -1 -9 -4 -21z m-1219 -24 c-15 -24 -25 -25
-83 -16 -2 1 4 10 14 21 11 12 31 20 52 20 33 0 33 0 17 -25z m-198 -16 c10
-17 -18 -40 -45 -37 -18 2 -27 10 -29 25 -3 18 2 21 32 21 20 0 39 -4 42 -9z
m1104 -1 c-1 -7 -7 -24 -15 -38 l-14 -25 -1 31 c0 17 3 34 7 37 10 11 23 8 23
-5z m248 5 c-10 -2 -18 -9 -18 -14 0 -5 -4 -9 -10 -9 -24 0 -7 26 18 27 15 0
19 -1 10 -4z m-1293 -51 c0 -17 -6 -28 -17 -30 -14 -3 -18 3 -18 26 0 16 3 31
6 35 13 13 30 -5 29 -31z m930 29 c3 -5 1 -12 -5 -16 -5 -3 -10 1 -10 9 0 18
6 21 15 7z m-901 -31 c-6 -6 -10 -3 -10 10 0 13 4 16 10 10 7 -7 7 -13 0 -20z
m1300 9 c-8 -14 -24 -10 -24 6 0 9 6 12 15 9 8 -4 12 -10 9 -15z m-344 -13 c0
-16 -40 -69 -47 -62 -3 2 4 15 16 27 12 13 21 29 21 36 0 7 2 13 5 13 3 0 5
-6 5 -14z m291 -29 c-9 -9 -14 -8 -21 3 -16 24 -11 31 11 19 16 -8 18 -14 10
-22z m-1206 4 c-3 -6 -14 -11 -23 -11 -15 1 -15 2 2 15 21 16 32 13 21 -4z
m785 0 c0 -5 -7 -12 -16 -15 -24 -9 -28 -7 -14 9 14 17 30 20 30 6z m380 5 c0
-3 -4 -8 -10 -11 -5 -3 -10 -1 -10 4 0 6 5 11 10 11 6 0 10 -2 10 -4z m-345
-65 c-8 -17 -22 -31 -30 -31 -21 0 -19 13 5 28 11 7 20 20 20 30 0 24 14 38
18 19 2 -9 -4 -29 -13 -46z m-875 18 c0 -17 -32 -22 -41 -8 -14 22 -11 27 16
21 14 -2 25 -8 25 -13z m800 -32 c0 -17 -37 -57 -53 -57 -6 0 1 12 16 26 15
14 25 29 22 35 -4 5 -1 9 4 9 6 0 11 -6 11 -13z m155 -7 c3 -6 -1 -7 -9 -4
-18 7 -21 14 -7 14 6 0 13 -4 16 -10z m-61 -36 c-9 -13 -20 -24 -24 -24 -5 0
-16 -3 -25 -7 -16 -6 -16 -4 0 20 9 15 24 27 31 27 8 0 14 5 14 11 0 5 4 7 10
4 6 -4 4 -16 -6 -31z m-74 -14 c0 -13 -41 -50 -57 -50 -19 0 -16 20 5 27 9 4
21 12 25 20 9 15 27 17 27 3z m-120 -15 c-7 -8 -20 -14 -29 -14 -13 1 -13 2 2
6 9 2 17 9 17 14 0 5 5 9 11 9 8 0 8 -5 -1 -15z m218 -12 c-16 -20 -69 -46
-76 -38 -4 4 4 15 17 24 14 9 30 21 35 27 17 18 40 5 24 -13z m-212 -29 c-15
-14 -31 -22 -35 -18 -3 4 0 9 7 11 7 3 18 11 25 19 7 7 17 13 22 13 6 0 -3
-11 -19 -25z m94 -26 c-24 -19 -50 -24 -50 -9 0 5 15 18 33 28 37 23 51 8 17
-19z m140 28 c0 -21 -28 -46 -51 -46 -26 0 -24 14 6 30 14 7 25 17 25 22 0 4
5 8 10 8 6 0 10 -6 10 -14z m-305 -16 c-3 -5 -11 -10 -16 -10 -6 0 -7 5 -4 10
3 6 11 10 16 10 6 0 7 -4 4 -10z m-91 -15 c-4 -8 -8 -15 -10 -15 -2 0 -4 7 -4
15 0 8 4 15 10 15 5 0 7 -7 4 -15z m186 -5 c0 -13 -48 -32 -69 -27 -13 3 -12
5 4 11 11 4 27 11 35 16 21 12 30 12 30 0z m120 -9 c0 -13 -55 -33 -77 -29
-14 4 -10 8 17 20 40 19 60 22 60 9z m-220 -10 c0 -5 -11 -11 -25 -13 -14 -3
-25 -3 -25 -1 0 3 34 19 48 22 1 1 2 -3 2 -8z m105 -20 c-6 -4 -23 -11 -40
-15 -28 -6 -29 -5 -11 9 21 16 67 22 51 6z"/>
<path d="M7428 6813 c7 -3 16 -2 19 1 4 3 -2 6 -13 5 -11 0 -14 -3 -6 -6z"/>
<path d="M3630 5615 c0 -8 4 -15 10 -15 5 0 7 7 4 15 -4 8 -8 15 -10 15 -2 0
-4 -7 -4 -15z"/>
<path d="M3725 5187 c-29 -7 -58 -28 -103 -74 -34 -36 -64 -75 -66 -87 -36
-191 -33 -235 23 -327 50 -82 85 -116 150 -145 65 -29 145 -32 213 -7 57 20
134 91 174 158 24 42 28 59 28 129 1 70 -3 90 -30 147 -52 110 -128 169 -265
204 -64 17 -69 17 -124 2z m29 -28 c-6 -11 -24 -2 -24 11 0 5 7 7 15 4 8 -4
12 -10 9 -15z"/>
<path d="M4302 4519 c2 -6 8 -10 13 -10 5 0 11 4 13 10 2 6 -4 11 -13 11 -9 0
-15 -5 -13 -11z"/>
<path d="M5135 4521 c-3 -5 -1 -12 5 -16 5 -3 10 1 10 9 0 18 -6 21 -15 7z"/>
<path d="M3655 4290 c3 -5 8 -10 11 -10 2 0 4 5 4 10 0 6 -5 10 -11 10 -5 0
-7 -4 -4 -10z"/>
<path d="M4997 4306 c-4 -10 -7 -25 -6 -34 0 -11 4 -9 10 7 5 13 8 29 6 35 -2
5 -6 2 -10 -8z"/>
<path d="M4430 4174 c0 -8 5 -12 10 -9 6 3 10 10 10 16 0 5 -4 9 -10 9 -5 0
-10 -7 -10 -16z"/>
<path d="M4310 4120 c0 -5 5 -10 10 -10 6 0 10 5 10 10 0 6 -4 10 -10 10 -5 0
-10 -4 -10 -10z"/>
<path d="M7835 7410 c-3 -5 -1 -10 4 -10 6 0 11 5 11 10 0 6 -2 10 -4 10 -3 0
-8 -4 -11 -10z"/>
<path d="M7878 7303 c7 -3 16 -2 19 1 4 3 -2 6 -13 5 -11 0 -14 -3 -6 -6z"/>
<path d="M4770 7080 c0 -5 5 -10 10 -10 6 0 10 5 10 10 0 6 -4 10 -10 10 -5 0
-10 -4 -10 -10z"/>
<path d="M1926 6975 c4 -8 11 -15 16 -15 6 0 5 6 -2 15 -7 8 -14 15 -16 15 -2
0 -1 -7 2 -15z"/>
<path d="M1950 6947 c0 -19 334 -479 467 -642 102 -125 146 -175 155 -175 14
0 9 14 -17 44 -38 44 -28 68 10 26 10 -11 23 -20 29 -20 6 1 -4 14 -23 30 -33
28 -33 29 -12 42 28 17 27 24 -11 61 -18 18 -28 26 -23 18 5 -9 4 -12 -3 -7
-6 4 -9 12 -6 19 2 7 -5 23 -17 36 -19 20 -24 21 -33 9 -6 -8 -19 -17 -28 -21
-17 -6 -23 7 -19 35 0 4 -8 5 -19 3 -12 -2 -18 0 -15 6 4 5 -1 9 -11 9 -13 0
-14 3 -5 13 6 8 8 16 5 20 -3 3 4 11 16 17 17 9 19 14 9 26 -10 12 -15 12 -28
2 -9 -7 -27 -19 -41 -27 -23 -13 -24 -13 -11 2 9 11 10 17 2 18 -26 3 -30 4
-38 12 -4 5 -1 7 7 5 9 -2 15 5 16 20 1 12 -3 22 -8 22 -6 0 -8 -6 -5 -13 3
-7 -3 -13 -13 -14 -15 -1 -16 2 -6 22 6 13 19 26 28 29 23 5 23 29 0 49 -17
16 -19 16 -18 -4 1 -14 -7 -25 -22 -30 -15 -6 -21 -5 -17 1 3 6 1 10 -5 10 -6
0 -10 7 -8 16 2 10 -3 19 -9 21 -7 3 -13 -1 -13 -9 0 -10 -3 -9 -10 2 -16 24
-12 80 5 80 21 0 19 24 -4 44 -19 17 -19 17 -14 -2 2 -11 -1 -23 -7 -27 -14
-9 -32 14 -25 33 3 7 1 11 -4 8 -5 -3 -14 1 -21 9 -7 8 -17 12 -23 8 -5 -3 -7
-1 -3 5 3 5 1 12 -5 14 -7 2 -17 19 -23 38 -9 27 -17 34 -33 33 -15 -2 -33 11
-57 39 -20 23 -36 39 -36 35z m544 -598 c-3 -6 6 -22 22 -35 16 -13 23 -23 17
-24 -7 0 -13 -8 -13 -17 0 -15 -3 -14 -22 5 -19 19 -21 24 -8 32 12 8 12 10
-2 15 -10 4 -22 4 -28 0 -15 -9 -12 1 6 19 18 18 39 22 28 5z"/>
<path d="M2020 6890 c0 -5 5 -10 10 -10 6 0 10 5 10 10 0 6 -4 10 -10 10 -5 0
-10 -4 -10 -10z"/>
<path d="M5517 6628 c-38 -50 -58 -86 -41 -75 13 8 88 117 83 121 -2 2 -21
-19 -42 -46z"/>
<path d="M2410 6444 c0 -7 11 -19 25 -28 14 -9 25 -12 25 -7 0 11 -30 36 -30
25 0 -5 -5 -2 -10 6 -5 8 -10 10 -10 4z"/>
<path d="M4090 6415 c-10 -12 -10 -15 4 -15 9 0 16 7 16 15 0 8 -2 15 -4 15
-2 0 -9 -7 -16 -15z"/>
<path d="M7872 6318 c3 -7 -17 -22 -45 -35 -27 -13 -61 -32 -77 -43 -24 -17
-27 -25 -23 -58 7 -50 -7 -60 -87 -64 -59 -3 -65 -5 -68 -26 -2 -13 3 -41 12
-62 14 -35 14 -39 -4 -55 -16 -14 -25 -16 -47 -7 -49 18 -97 21 -118 6 -16
-12 -20 -29 -22 -102 -5 -124 -4 -135 7 -146 7 -7 10 -6 10 2 0 7 5 12 10 12
6 0 10 -7 10 -15 0 -8 -5 -15 -11 -15 -22 0 2 -18 32 -24 29 -5 31 -9 27 -40
-2 -19 -1 -33 2 -31 3 2 12 0 20 -5 25 -16 47 8 128 137 44 71 108 166 142
213 73 101 91 133 117 220 24 76 27 118 12 136 -14 17 -32 18 -27 2z"/>
<path d="M2592 6105 c9 -10 21 -16 28 -13 7 2 -1 10 -16 17 -27 12 -28 11 -12
-4z"/>
<path d="M7210 5673 c0 -13 48 -68 54 -63 7 8 -31 70 -44 70 -5 0 -10 -3 -10
-7z"/>
<path d="M6375 5620 c-3 -5 -1 -10 4 -10 6 0 11 5 11 10 0 6 -2 10 -4 10 -3 0
-8 -4 -11 -10z"/>
<path d="M8340 5609 c0 -5 5 -7 10 -4 6 3 10 8 10 11 0 2 -4 4 -10 4 -5 0 -10
-5 -10 -11z"/>
<path d="M8270 5585 c-16 -19 -4 -35 25 -35 13 0 25 -6 28 -12 2 -8 8 -9 13
-4 5 5 4 11 -3 13 -7 3 -13 16 -13 29 0 28 -30 33 -50 9z"/>
<path d="M8360 5580 c0 -5 5 -10 10 -10 6 0 10 5 10 10 0 6 -4 10 -10 10 -5 0
-10 -4 -10 -10z"/>
<path d="M5185 5530 c-3 -5 -1 -10 4 -10 6 0 11 5 11 10 0 6 -2 10 -4 10 -3 0
-8 -4 -11 -10z"/>
<path d="M5440 5520 c20 -13 33 -13 25 0 -3 6 -14 10 -23 10 -15 0 -15 -2 -2
-10z"/>
<path d="M5270 5502 c0 -5 14 -18 30 -30 36 -27 40 -16 6 16 -25 23 -36 27
-36 14z"/>
<path d="M6595 5480 c3 -5 10 -10 16 -10 5 0 9 5 9 10 0 6 -7 10 -16 10 -8 0
-12 -4 -9 -10z"/>
<path d="M5160 5470 c0 -5 7 -10 15 -10 8 0 15 5 15 10 0 6 -7 10 -15 10 -8 0
-15 -4 -15 -10z"/>
<path d="M5112 5440 c-7 -11 -9 -20 -4 -20 4 0 15 9 25 20 11 14 13 20 4 20
-7 0 -18 -9 -25 -20z"/>
<path d="M7536 5451 c-4 -5 -2 -12 3 -15 5 -4 12 -2 15 3 4 5 2 12 -3 15 -5 4
-12 2 -15 -3z"/>
<path d="M7600 5449 c0 -5 5 -7 10 -4 6 3 10 8 10 11 0 2 -4 4 -10 4 -5 0 -10
-5 -10 -11z"/>
<path d="M7637 5433 c-3 -16 -3 -40 0 -55 l5 -27 35 17 c29 14 33 20 28 42
-14 55 -59 70 -68 23z"/>
<path d="M7740 5425 c0 -8 5 -15 10 -15 6 0 10 7 10 15 0 8 -4 15 -10 15 -5 0
-10 -7 -10 -15z"/>
<path d="M7580 5410 c0 -5 5 -10 10 -10 6 0 10 5 10 10 0 6 -4 10 -10 10 -5 0
-10 -4 -10 -10z"/>
<path d="M5122 5398 c6 -18 25 -20 31 -3 5 10 0 15 -14 15 -12 0 -19 -5 -17
-12z"/>
<path d="M7540 5403 c1 -18 18 -35 24 -24 4 6 4 16 1 21 -7 12 -25 13 -25 3z"/>
<path d="M8375 5372 c-16 -11 -65 -87 -65 -99 0 -6 -10 -20 -23 -30 -29 -23
-42 -43 -27 -43 17 0 121 102 131 128 10 26 -1 55 -16 44z"/>
<path d="M6640 5360 c0 -6 7 -10 15 -10 8 0 15 2 15 4 0 2 -7 6 -15 10 -8 3
-15 1 -15 -4z"/>
<path d="M7585 5361 c-3 -5 -1 -12 5 -16 5 -3 10 1 10 9 0 18 -6 21 -15 7z"/>
<path d="M7720 5361 c0 -6 5 -13 10 -16 6 -3 10 1 10 9 0 9 -4 16 -10 16 -5 0
-10 -4 -10 -9z"/>
<path d="M6523 5353 c-7 -2 -13 -12 -13 -21 0 -9 -13 -31 -29 -48 -42 -44 -56
-138 -29 -191 16 -32 31 -29 52 10 9 17 35 61 56 97 46 76 52 121 18 144 -23
16 -34 18 -55 9z"/>
<path d="M6420 5330 c0 -5 5 -10 10 -10 6 0 10 5 10 10 0 6 -4 10 -10 10 -5 0
-10 -4 -10 -10z"/>
<path d="M6746 5323 c-11 -11 -6 -23 9 -23 8 0 15 4 15 9 0 13 -16 22 -24 14z"/>
<path d="M8276 5271 c-4 -7 -5 -15 -2 -18 9 -9 19 4 14 18 -4 11 -6 11 -12 0z"/>
<path d="M6655 5210 c3 -5 8 -10 11 -10 2 0 4 5 4 10 0 6 -5 10 -11 10 -5 0
-7 -4 -4 -10z"/>
<path d="M6580 5160 c0 -5 5 -10 10 -10 6 0 10 5 10 10 0 6 -4 10 -10 10 -5 0
-10 -4 -10 -10z"/>
<path d="M6276 5145 c-35 -10 -39 -15 -40 -43 -1 -36 4 -38 43 -18 38 20 54
42 44 59 -6 11 -16 11 -47 2z"/>
<path d="M6850 5129 c0 -5 5 -7 10 -4 6 3 10 8 10 11 0 2 -4 4 -10 4 -5 0 -10
-5 -10 -11z"/>
<path d="M6320 5090 c0 -5 5 -10 10 -10 6 0 10 5 10 10 0 6 -4 10 -10 10 -5 0
-10 -4 -10 -10z"/>
<path d="M6376 5091 c-4 -5 -2 -12 3 -15 5 -4 12 -2 15 3 4 5 2 12 -3 15 -5 4
-12 2 -15 -3z"/>
<path d="M6520 5046 c0 -9 5 -16 10 -16 6 0 10 4 10 9 0 6 -4 13 -10 16 -5 3
-10 -1 -10 -9z"/>
<path d="M6150 4975 c-10 -12 -10 -15 0 -15 7 0 10 -7 6 -15 -4 -12 -2 -13 13
-3 11 7 16 19 13 30 -5 22 -15 23 -32 3z"/>
<path d="M6490 4976 c0 -9 5 -16 10 -16 6 0 10 4 10 9 0 6 -4 13 -10 16 -5 3
-10 -1 -10 -9z"/>
<path d="M6350 4973 c0 -5 6 -18 14 -29 17 -22 35 -11 20 13 -12 19 -34 29
-34 16z"/>
<path d="M6317 4933 c-12 -12 -7 -19 15 -20 13 -1 18 1 13 5 -6 4 -13 11 -16
15 -3 4 -9 4 -12 0z"/>
<path d="M4518 4832 c-20 -29 -53 -42 -105 -42 -26 0 -55 -5 -63 -10 -11 -7 2
-10 44 -10 45 0 69 6 107 28 27 15 49 33 49 40 0 18 -17 15 -32 -6z"/>
<path d="M6677 4833 c-4 -3 -7 -11 -7 -17 0 -6 5 -5 12 2 6 6 9 14 7 17 -3 3
-9 2 -12 -2z"/>
<path d="M6600 4820 c0 -5 5 -10 10 -10 6 0 10 5 10 10 0 6 -4 10 -10 10 -5 0
-10 -4 -10 -10z"/>
<path d="M6550 4774 c0 -8 5 -12 10 -9 6 4 8 11 5 16 -9 14 -15 11 -15 -7z"/>
<path d="M6722 4770 c21 -11 58 -41 83 -67 53 -56 85 -142 85 -228 0 -71 -19
-196 -32 -212 -7 -9 -7 -13 -1 -13 11 0 193 175 193 185 0 3 14 20 31 38 71
75 99 119 99 156 0 30 13 41 25 21 7 -12 25 -4 25 11 0 5 -7 9 -15 9 -8 0 -15
7 -15 15 0 18 -16 20 -27 3 -5 -9 -9 -3 -13 17 -4 20 -12 31 -25 32 -11 1 -63
12 -115 23 -52 12 -149 23 -215 26 l-120 5 37 -21z"/>
<path d="M6530 4735 c0 -8 5 -15 10 -15 6 0 10 7 10 15 0 8 -4 15 -10 15 -5 0
-10 -7 -10 -15z"/>
<path d="M7225 4700 c3 -5 10 -10 16 -10 5 0 9 5 9 10 0 6 -7 10 -16 10 -8 0
-12 -4 -9 -10z"/>
<path d="M6515 4669 c-4 -6 -4 -13 -1 -16 8 -8 36 5 36 17 0 13 -27 13 -35 -1z"/>
<path d="M5460 4110 c0 -5 5 -10 11 -10 5 0 7 5 4 10 -3 6 -8 10 -11 10 -2 0
-4 -4 -4 -10z"/>
<path d="M5430 4095 c-10 -12 -10 -15 4 -15 9 0 16 7 16 15 0 8 -2 15 -4 15
-2 0 -9 -7 -16 -15z"/>
<path d="M3730 4084 c0 -5 -14 -24 -30 -43 -37 -42 -38 -51 -1 -51 16 0 31 -5
33 -11 7 -20 48 14 48 39 0 13 -4 20 -10 17 -5 -3 -7 0 -5 8 3 7 -3 22 -15 32
-11 10 -20 14 -20 9z"/>
<path d="M6456 4055 c-3 -9 0 -15 9 -15 16 0 20 16 6 24 -5 3 -11 -1 -15 -9z"/>
<path d="M6392 4032 c-7 -5 -15 -19 -17 -32 -2 -13 -16 -35 -30 -50 -14 -14
-25 -30 -25 -36 0 -5 13 6 29 24 16 18 35 31 42 30 7 -2 13 2 14 7 0 6 4 16 8
23 5 7 3 12 -3 12 -7 0 -10 7 -6 15 6 17 6 18 -12 7z"/>
<path d="M6470 4023 c1 -20 16 -30 35 -22 17 6 17 8 3 8 -10 1 -18 6 -18 11 0
6 -4 10 -10 10 -5 0 -10 -3 -10 -7z"/>
<path d="M4080 3994 c0 -8 5 -12 10 -9 6 3 10 10 10 16 0 5 -4 9 -10 9 -5 0
-10 -7 -10 -16z"/>
<path d="M5406 3931 c-4 -7 -5 -15 -2 -18 9 -9 19 4 14 18 -4 11 -6 11 -12 0z"/>
<path d="M5360 3895 c0 -8 5 -15 10 -15 6 0 10 7 10 15 0 8 -4 15 -10 15 -5 0
-10 -7 -10 -15z"/>
<path d="M5510 3829 c0 -5 5 -7 10 -4 6 3 10 8 10 11 0 2 -4 4 -10 4 -5 0 -10
-5 -10 -11z"/>
<path d="M5330 3810 c0 -5 5 -10 10 -10 6 0 10 5 10 10 0 6 -4 10 -10 10 -5 0
-10 -4 -10 -10z"/>
<path d="M6822 3809 c6 -18 -19 -91 -34 -100 -13 -9 7 -18 91 -43 63 -19 75
-13 93 46 14 48 5 58 -72 83 -30 10 -61 20 -69 23 -9 3 -12 0 -9 -9z"/>
<path d="M5442 3799 c2 -7 10 -15 17 -17 8 -3 12 1 9 9 -2 7 -10 15 -17 17 -8
3 -12 -1 -9 -9z"/>
<path d="M6440 3797 c0 -8 130 -47 154 -46 29 0 -64 37 -114 45 -22 4 -40 4
-40 1z"/>
<path d="M5285 3750 c-3 -5 1 -10 9 -10 9 0 16 5 16 10 0 6 -4 10 -9 10 -6 0
-13 -4 -16 -10z"/>
<path d="M6660 3730 c8 -5 20 -10 25 -10 6 0 3 5 -5 10 -8 5 -19 10 -25 10 -5
0 -3 -5 5 -10z"/>
<path d="M5297 3723 c-3 -5 1 -14 9 -21 12 -10 14 -10 14 2 0 17 -16 30 -23
19z"/>
<path d="M5370 3720 c0 -5 4 -10 9 -10 6 0 13 5 16 10 3 6 -1 10 -9 10 -9 0
-16 -4 -16 -10z"/>
<path d="M3409 3688 c-7 -13 -43 -60 -82 -106 l-70 -83 27 -27 c14 -16 26 -33
26 -38 0 -6 9 -19 21 -30 19 -17 22 -17 32 -3 7 9 42 49 78 90 37 41 79 89 94
107 l28 33 -24 17 c-37 26 -99 52 -99 42 0 -6 -4 -10 -10 -10 -5 0 -7 7 -4 15
9 23 -4 18 -17 -7z"/>
<path d="M5138 3683 c7 -3 16 -2 19 1 4 3 -2 6 -13 5 -11 0 -14 -3 -6 -6z"/>
<path d="M7363 3613 c0 -13 3 -23 7 -23 4 0 10 -9 13 -20 5 -20 -8 -29 -15
-10 -2 7 -10 6 -22 -3 -17 -13 -15 -15 25 -25 24 -6 71 -18 104 -27 58 -15
142 -31 390 -76 237 -42 342 -48 465 -28 93 15 99 36 17 60 -43 12 -247 46
-322 54 -88 8 -292 44 -350 62 -27 8 -86 18 -130 23 -44 4 -103 15 -131 22
-51 14 -51 14 -51 -9z"/>
<path d="M4042 3498 c-5 -7 -19 -60 -32 -118 -12 -58 -24 -112 -26 -121 -4
-13 5 -15 55 -11 50 4 62 1 80 -17 l21 -21 4 23 c20 102 36 199 36 217 0 37
-114 77 -138 48z"/>
<path d="M2853 2978 c-45 -51 -150 -206 -297 -438 -85 -135 -174 -277 -199
-316 -116 -183 -295 -550 -377 -775 -40 -106 -99 -317 -92 -324 14 -13 42 -2
61 23 11 15 41 68 67 118 26 49 58 106 71 127 30 47 211 405 237 467 11 25 39
79 63 121 43 76 53 107 31 93 -7 -4 -8 -3 -4 4 4 6 13 9 21 5 8 -3 15 -1 15 5
0 5 22 50 50 100 27 50 48 97 47 104 -2 7 -2 10 1 5 4 -8 42 36 42 50 0 4 -5
1 -10 -7 -8 -13 -10 -13 -10 1 0 9 8 19 18 21 9 3 44 47 77 99 32 52 71 110
85 129 148 197 162 220 137 220 -22 0 -49 30 -43 47 3 8 1 11 -4 8 -16 -10
-34 6 -19 16 11 7 11 11 1 17 -9 7 -8 13 8 27 11 10 20 24 20 32 0 7 4 13 9
13 5 0 11 7 15 15 8 21 3 19 -21 -7z m-188 -478 c3 -5 1 -10 -4 -10 -6 0 -11
5 -11 10 0 6 2 10 4 10 3 0 8 -4 11 -10z m-45 -70 c0 -5 -4 -10 -10 -10 -5 0
-10 5 -10 10 0 6 5 10 10 10 6 0 10 -4 10 -10z m-55 -49 c-18 -35 -35 -41 -35
-12 0 11 9 23 20 26 11 3 20 11 20 17 0 6 3 9 6 6 3 -4 -2 -20 -11 -37z"/>
<path d="M3881 2704 c0 -11 3 -14 6 -6 3 7 2 16 -1 19 -3 4 -6 -2 -5 -13z"/>
<path d="M3872 2630 c0 -14 2 -19 5 -12 2 6 2 18 0 25 -3 6 -5 1 -5 -13z"/>
<path d="M3860 2565 c0 -14 2 -25 4 -25 2 0 6 11 8 25 3 14 1 25 -3 25 -5 0
-9 -11 -9 -25z"/>
<path d="M3961 2475 c-1 -37 0 -38 17 -22 11 12 13 20 6 25 -6 4 -14 14 -17
22 -3 8 -6 -3 -6 -25z"/>
<path d="M3850 2473 c0 -21 3 -24 9 -14 5 8 7 20 4 28 -8 21 -13 15 -13 -14z"/>
<path d="M3864 2433 c-24 -4 -23 0 -49 -258 -16 -156 -42 -596 -55 -929 -9
-240 1 -583 25 -815 22 -219 29 -235 82 -181 47 48 52 111 47 630 -2 269 0
473 6 500 10 49 2 240 -10 240 -5 0 -6 -8 -3 -18 2 -11 -1 -19 -9 -20 -7 0
-22 -3 -34 -7 -18 -6 -21 -2 -21 23 0 20 5 28 13 25 6 -2 15 0 19 6 3 6 16 11
29 11 21 0 23 6 35 118 17 156 41 624 34 651 -3 12 -13 21 -24 21 -20 0 -38
-22 -22 -27 12 -4 5 -53 -8 -53 -5 0 -9 -4 -9 -10 0 -5 8 -10 18 -10 14 0 15
-2 2 -10 -10 -6 -11 -10 -2 -10 6 0 12 -7 12 -15 0 -9 -9 -15 -21 -15 -15 0
-19 5 -15 15 3 8 1 15 -3 15 -5 0 -8 29 -7 65 2 36 0 64 -3 64 -3 -1 -16 -4
-27 -6z m6 -33 c0 -5 -2 -10 -4 -10 -3 0 -8 5 -11 10 -3 6 -1 10 4 10 6 0 11
-4 11 -10z m0 -50 c0 -5 -5 -10 -11 -10 -5 0 -7 5 -4 10 3 6 8 10 11 10 2 0 4
-4 4 -10z m10 -40 c-6 -11 -15 -20 -20 -20 -14 0 -12 27 3 33 23 10 28 7 17
-13z m18 -327 c2 -8 -5 -13 -17 -13 -12 0 -21 -4 -21 -10 0 -5 -4 -10 -9 -10
-5 0 -4 11 2 25 12 26 37 30 45 8z m39 -85 c-3 -7 -5 -2 -5 12 0 14 2 19 5 13
2 -7 2 -19 0 -25z m-57 7 c-7 -8 -10 -21 -7 -29 4 -10 1 -13 -9 -9 -19 7 -18
30 4 42 24 14 26 13 12 -4z m60 -45 c0 -5 -4 -10 -10 -10 -5 0 -10 5 -10 10 0
6 5 10 10 10 6 0 10 -4 10 -10z m-57 -32 c3 -10 9 -10 26 0 20 12 21 10 21
-28 0 -34 -2 -39 -14 -28 -10 9 -11 17 -4 26 8 9 7 11 -6 6 -9 -3 -16 -10 -16
-15 0 -4 -7 -6 -16 -2 -13 5 -13 8 -2 15 10 7 10 11 1 15 -7 2 -13 9 -13 14 0
13 18 11 23 -3z m7 -278 c0 -5 -7 -10 -15 -10 -8 0 -15 5 -15 10 0 6 7 10 15
10 8 0 15 -4 15 -10z m3 -26 c4 -4 3 -12 -1 -18 -11 -17 -9 -77 2 -73 6 2 13
14 17 28 6 22 7 21 8 -7 1 -26 -4 -33 -24 -38 -14 -4 -35 -1 -48 6 -20 11 -20
13 -4 16 14 3 16 7 6 18 -9 11 -8 18 5 32 9 10 16 24 16 30 0 13 13 16 23 6z
m2 -144 c11 -13 14 -20 6 -20 -7 0 -10 -7 -6 -19 3 -10 -1 -24 -10 -31 -14
-12 -14 -15 2 -33 17 -19 17 -19 -2 -15 -11 2 -19 10 -17 16 1 7 -4 12 -10 12
-9 0 -9 3 1 9 12 8 12 12 -1 25 -10 10 -14 24 -10 38 5 21 4 22 -11 9 -18 -14
-20 -12 -11 13 9 22 47 20 69 -4z m-4 -147 c1 -10 3 -31 5 -47 2 -16 -1 -37
-6 -45 -6 -11 -8 -5 -6 22 1 21 -1 40 -5 42 -14 10 -17 45 -3 45 8 0 15 -8 15
-17z m-31 -83 c0 -5 -5 -10 -11 -10 -5 0 -7 5 -4 10 3 6 8 10 11 10 2 0 4 -4
4 -10z"/>
<path d="M3865 1334 c9 -9 19 -13 23 -10 3 4 0 11 -8 16 -24 15 -33 11 -15 -6z"/>
</g>
</svg>
